<svg xmlns="http://www.w3.org/2000/svg" width="1080" height="1140" viewBox="0 0 1080 1140" font-family="Roboto, system-ui, sans-serif" role="img" aria-labelledby="chord-title chord-desc"><title id="chord-title">Platform reviews everyone's code and is rarely reviewed back</title><desc id="chord-desc">Chord diagram of code reviews exchanged between five engineering teams during one sprint. Each team owns an arc sized by its total review activity; each ribbon links two teams with a width proportional to the pull requests they reviewed for each other. The Platform team's inbound reviews dwarf its outbound ones: it reviews nearly everyone's code but few teams review Platform's.</desc><style>.chord{transition:opacity .18s ease}.arc{transition:opacity .18s ease}#chords:hover .chord{opacity:.12}#chords .chord:hover,#chords .chord:focus{opacity:1}.chord:focus,.arc:focus{outline:none}@media (prefers-contrast: more){
  .team-0{fill:#004CCE;stroke:#004CCE;}
  .team-1{fill:#006700;stroke:#006700;}
  .team-2{fill:#993600;stroke:#993600;}
  .team-3{fill:#831FAF;stroke:#831FAF;}
  .team-4{fill:#005E8B;stroke:#005E8B;}
}@media (forced-colors: active){
  .team-0{fill:url(#chord-fcp-0);forced-color-adjust:none;}
  .team-1{fill:url(#chord-fcp-1);forced-color-adjust:none;}
  .team-2{fill:url(#chord-fcp-2);forced-color-adjust:none;}
  .team-3{fill:url(#chord-fcp-3);forced-color-adjust:none;}
  .team-4{fill:url(#chord-fcp-4);forced-color-adjust:none;}
}@media (prefers-color-scheme: dark){
  [fill="#FFFFFF"]{fill:#0B0B0C;}
  [fill="#1D1D1F"]{fill:#F2F2F7;}
  [fill="#6E6E73"]{fill:#9C9CA3;}
  [style*="multiply"]{mix-blend-mode:screen;}
}</style><defs><pattern id="chord-fcp-0" width="8" height="8" patternUnits="userSpaceOnUse"><rect width="8" height="8" fill="Canvas"/><path d="M0,8L8,0" stroke="CanvasText" stroke-width="1.6"/></pattern><pattern id="chord-fcp-1" width="8" height="8" patternUnits="userSpaceOnUse"><rect width="8" height="8" fill="Canvas"/><path d="M0,0L8,8" stroke="CanvasText" stroke-width="1.6"/></pattern><pattern id="chord-fcp-2" width="8" height="8" patternUnits="userSpaceOnUse"><rect width="8" height="8" fill="Canvas"/><path d="M0,4L8,4" stroke="CanvasText" stroke-width="1.6"/></pattern><pattern id="chord-fcp-3" width="8" height="8" patternUnits="userSpaceOnUse"><rect width="8" height="8" fill="Canvas"/><path d="M4,0L4,8" stroke="CanvasText" stroke-width="1.6"/></pattern><pattern id="chord-fcp-4" width="10" height="10" patternUnits="userSpaceOnUse"><rect width="10" height="10" fill="Canvas"/><circle cx="5" cy="5" r="1.8" fill="CanvasText"/></pattern></defs><rect width="1080" height="1140" fill="#FFFFFF"/><text x="46" y="62" font-size="30" font-weight="700" fill="#1D1D1F">Platform reviews everyone's code and is rarely reviewed back</text><text x="46" y="96" font-size="18" fill="#6E6E73">Cross-team pull-request reviews over one sprint (illustrative data)</text><g id="chords"><path class="chord team-1" tabindex="0" role="img" aria-label="Payments ↔ Platform: 36 reviews (Payments reviewed 22 of Platform's PRs, Platform reviewed 14 of Payments's)" d="M814.80,807.60 A342.00,342.00 0 0 1 711.16,900.09 Q565.38,597.59 550.15,262.15 A342.00,342.00 0 0 1 637.78,276.28 Q592.16,586.62 814.80,807.60 Z" fill="#28CD41" fill-opacity="0.5" stroke="#28CD41" stroke-opacity="0.35" stroke-width="0.6"><title>Payments ↔ Platform: 36 reviews (Payments reviewed 22 of Platform's PRs, Platform reviewed 14 of Payments's)</title></path><path class="chord team-2" tabindex="0" role="img" aria-label="Growth ↔ Platform: 30 reviews (Growth reviewed 19 of Platform's PRs, Platform reviewed 11 of Growth's)" d="M433.70,929.06 A342.00,342.00 0 0 1 327.81,872.22 Q523.98,595.67 637.78,276.28 A342.00,342.00 0 0 1 702.30,302.96 Q547.84,607.36 433.70,929.06 Z" fill="#FF9500" fill-opacity="0.5" stroke="#FF9500" stroke-opacity="0.35" stroke-width="0.6"><title>Growth ↔ Platform: 30 reviews (Growth reviewed 19 of Platform's PRs, Platform reviewed 11 of Growth's)</title></path><path class="chord team-3" tabindex="0" role="img" aria-label="Mobile ↔ Platform: 26 reviews (Mobile reviewed 17 of Platform's PRs, Platform reviewed 9 of Mobile's)" d="M206.90,681.51 A342.00,342.00 0 0 1 199.31,574.14 Q515.02,557.67 702.30,302.96 A342.00,342.00 0 0 1 750.17,334.20 Q522.79,577.08 206.90,681.51 Z" fill="#AF52DE" fill-opacity="0.5" stroke="#AF52DE" stroke-opacity="0.35" stroke-width="0.6"><title>Mobile ↔ Platform: 26 reviews (Mobile reviewed 17 of Platform's PRs, Platform reviewed 9 of Mobile's)</title></path><path class="chord team-4" tabindex="0" role="img" aria-label="Data ↔ Platform: 22 reviews (Data reviewed 15 of Platform's PRs, Platform reviewed 7 of Data's)" d="M283.58,377.70 A342.00,342.00 0 0 1 355.78,315.85 Q543.63,525.89 750.17,334.20 A342.00,342.00 0 0 1 783.40,363.75 Q538.18,538.68 283.58,377.70 Z" fill="#5AC8FA" fill-opacity="0.5" stroke="#5AC8FA" stroke-opacity="0.35" stroke-width="0.6"><title>Data ↔ Platform: 22 reviews (Data reviewed 15 of Platform's PRs, Platform reviewed 7 of Data's)</title></path><path class="chord team-4" tabindex="0" role="img" aria-label="Data ↔ Payments: 14 reviews (Data reviewed 8 of Payments's PRs, Payments reviewed 6 of Data's)" d="M355.78,315.85 A342.00,342.00 0 0 1 400.52,291.74 Q538.85,604.49 671.29,919.80 A342.00,342.00 0 0 1 635.32,932.45 Q527.55,609.64 355.78,315.85 Z" fill="#5AC8FA" fill-opacity="0.5" stroke="#5AC8FA" stroke-opacity="0.35" stroke-width="0.6"><title>Data ↔ Payments: 14 reviews (Data reviewed 8 of Payments's PRs, Payments reviewed 6 of Data's)</title></path><path class="chord team-3" tabindex="0" role="img" aria-label="Mobile ↔ Growth: 11 reviews (Mobile reviewed 6 of Growth's PRs, Growth reviewed 5 of Mobile's)" d="M202.47,548.91 A342.00,342.00 0 0 1 210.70,511.68 Q462.14,626.91 313.19,859.97 A342.00,342.00 0 0 1 290.41,837.81 Q457.80,629.02 202.47,548.91 Z" fill="#AF52DE" fill-opacity="0.5" stroke="#AF52DE" stroke-opacity="0.35" stroke-width="0.6"><title>Mobile ↔ Growth: 11 reviews (Mobile reviewed 6 of Growth's PRs, Growth reviewed 5 of Mobile's)</title></path><path class="chord team-1" tabindex="0" role="img" aria-label="Payments ↔ Growth: 7 reviews (Payments reviewed 4 of Growth's PRs, Growth reviewed 3 of Payments's)" d="M711.16,900.09 A342.00,342.00 0 0 1 688.69,911.99 Q531.11,684.67 327.81,872.22 A342.00,342.00 0 0 1 313.19,859.97 Q532.21,681.29 711.16,900.09 Z" fill="#28CD41" fill-opacity="0.5" stroke="#28CD41" stroke-opacity="0.35" stroke-width="0.6"><title>Payments ↔ Growth: 7 reviews (Payments reviewed 4 of Growth's PRs, Growth reviewed 3 of Payments's)</title></path><path class="chord team-3" tabindex="0" role="img" aria-label="Mobile ↔ Payments: 7 reviews (Mobile reviewed 4 of Payments's PRs, Payments reviewed 3 of Mobile's)" d="M199.31,574.14 A342.00,342.00 0 0 1 202.47,548.91 Q513.56,639.41 688.69,911.99 A342.00,342.00 0 0 1 671.29,919.80 Q510.68,644.03 199.31,574.14 Z" fill="#AF52DE" fill-opacity="0.5" stroke="#AF52DE" stroke-opacity="0.35" stroke-width="0.6"><title>Mobile ↔ Payments: 7 reviews (Mobile reviewed 4 of Payments's PRs, Payments reviewed 3 of Mobile's)</title></path><path class="chord team-2" tabindex="0" role="img" aria-label="Growth ↔ Data: 4 reviews (Growth reviewed 2 of Data's PRs, Data reviewed 2 of Growth's)" d="M290.41,837.81 A342.00,342.00 0 0 1 281.89,828.37 Q484.34,591.70 400.52,291.74 A342.00,342.00 0 0 1 412.22,286.77 Q487.17,592.32 290.41,837.81 Z" fill="#FF9500" fill-opacity="0.5" stroke="#FF9500" stroke-opacity="0.35" stroke-width="0.6"><title>Growth ↔ Data: 4 reviews (Growth reviewed 2 of Data's PRs, Data reviewed 2 of Growth's)</title></path><path class="chord team-3" tabindex="0" role="img" aria-label="Mobile ↔ Data: 4 reviews (Mobile reviewed 3 of Data's PRs, Data reviewed 1 of Mobile's)" d="M210.70,511.68 A342.00,342.00 0 0 1 216.35,493.47 Q476.80,544.11 412.22,286.77 A342.00,342.00 0 0 1 418.14,284.45 Q476.84,546.34 210.70,511.68 Z" fill="#AF52DE" fill-opacity="0.5" stroke="#AF52DE" stroke-opacity="0.35" stroke-width="0.6"><title>Mobile ↔ Data: 4 reviews (Mobile reviewed 3 of Data's PRs, Data reviewed 1 of Mobile's)</title></path></g><g id="arcs"><path class="arc team-0" tabindex="0" role="img" aria-label="Platform: 114 reviews in and out this sprint" d="M566.64,232.96 A372.00,372.00 0 0 1 859.77,794.07 A15.00,15.00 0 0 1 833.99,778.75 A342.00,342.00 0 0 0 564.50,262.88 A15.00,15.00 0 0 1 566.64,232.96 Z" fill="#007AFF"><title>Platform: 114 reviews in and out this sprint</title></path><text x="889.22" y="421.57" font-size="20" font-weight="600" fill="#1D1D1F" text-anchor="start" dominant-baseline="middle">Platform</text><path class="arc team-1" tabindex="0" role="img" aria-label="Payments: 64 reviews in and out this sprint" d="M829.33,837.82 A372.00,372.00 0 0 1 460.74,967.46 A15.00,15.00 0 0 1 467.14,938.15 A342.00,342.00 0 0 0 806.00,818.96 A15.00,15.00 0 0 1 829.33,837.82 Z" fill="#28CD41"><title>Payments: 64 reviews in and out this sprint</title></path><text x="670.73" y="975.68" font-size="20" font-weight="600" fill="#1D1D1F" text-anchor="start" dominant-baseline="middle">Payments</text><path class="arc team-2" tabindex="0" role="img" aria-label="Growth: 52 reviews in and out this sprint" d="M409.63,952.41 A372.00,372.00 0 0 1 188.07,724.54 A15.00,15.00 0 0 1 216.45,714.82 A342.00,342.00 0 0 0 420.14,924.31 A15.00,15.00 0 0 1 409.63,952.41 Z" fill="#FF9500"><title>Growth: 52 reviews in and out this sprint</title></path><text x="257.52" y="878.66" font-size="20" font-weight="600" fill="#1D1D1F" text-anchor="end" dominant-baseline="middle">Growth</text><path class="arc team-3" tabindex="0" role="img" aria-label="Mobile: 48 reviews in and out this sprint" d="M174.46,673.02 A372.00,372.00 0 0 1 237.61,387.33 A15.00,15.00 0 0 1 262.00,404.80 A342.00,342.00 0 0 0 203.94,667.45 A15.00,15.00 0 0 1 174.46,673.02 Z" fill="#AF52DE"><title>Mobile: 48 reviews in and out this sprint</title></path><text x="155.29" y="518.96" font-size="20" font-weight="600" fill="#1D1D1F" text-anchor="end" dominant-baseline="middle">Mobile</text><path class="arc team-4" tabindex="0" role="img" aria-label="Data: 44 reviews in and out this sprint" d="M271.68,346.35 A372.00,372.00 0 0 1 513.36,232.96 A15.00,15.00 0 0 1 515.50,262.88 A342.00,342.00 0 0 0 293.31,367.12 A15.00,15.00 0 0 1 271.68,346.35 Z" fill="#5AC8FA"><title>Data: 44 reviews in and out this sprint</title></path><text x="372.65" y="247.31" font-size="20" font-weight="600" fill="#1D1D1F" text-anchor="end" dominant-baseline="middle">Data</text></g><circle cx="540.0" cy="604.0" r="96" fill="#FFFFFF" fill-opacity="0.82"/><text x="540.0" y="580.0" text-anchor="middle" font-size="18" fill="#6E6E73">Platform reviewed</text><text x="540.0" y="622.0" text-anchor="middle" font-family="Roboto Mono, ui-monospace, monospace" font-size="38" font-weight="700" fill="#007AFF">73 vs 41</text><text x="540.0" y="652.0" text-anchor="middle" font-size="18" fill="#6E6E73">given vs received</text><text x="46" y="1106" font-size="15" fill="#6E6E73">Arc size ∝ a team's total reviews · ribbon width ∝ reviews exchanged · hover or focus a chord to trace it</text><g data-fs-internal="" role="button" tabindex="0" aria-label="Toggle fullscreen" transform="translate(1032,14)" style="display:none;cursor:pointer"><rect x="0" y="0" width="34" height="34" rx="8" fill="#F2F3F5"/><path d="M6 13 V6 h7 M28 13 V6 h-7 M6 21 v7 h7 M28 21 v7 h-7" fill="none" stroke="#1D1D1F" stroke-width="2" stroke-linecap="round"/></g><script><![CDATA[(function(){var me=document.currentScript,svg=me.ownerSVGElement||me.parentNode;if(svg.closest&&svg.closest('[data-fs-target]'))return;var btn=svg.querySelector('[data-fs-internal]');var req=svg.requestFullscreen||svg.webkitRequestFullscreen;if(!btn||!req)return;btn.style.display='';function t(){var f=document.fullscreenElement||document.webkitFullscreenElement;if(f===svg)(document.exitFullscreen||document.webkitExitFullscreen).call(document);else req.call(svg);}btn.addEventListener('click',t);btn.addEventListener('keydown',function(e){if(e.key==='Enter'||e.key===' '){e.preventDefault();t();}});})();]]></script></svg>