<svg xmlns="http://www.w3.org/2000/svg" width="1280" height="900" viewBox="0 0 1280 900" font-family="Roboto, system-ui, sans-serif" role="img" aria-labelledby="hx-title hx-desc">
<title id="hx-title">Bike-share trips pile up downtown, thin out at the edges</title>
<desc id="hx-desc">Hexbin density map: the coastal-metro service area is tiled with 164 regular hexagons, each shaded by the number of morning bike-share trips that started inside it, from 3,200 trips in all. The single-hue blue ramp runs from pale (few trips) to deep blue (the busiest cell, 116 trips). Trips concentrate in the downtown core and along the waterfront and fade toward the suburban edge.</desc>
<style>
.hex { transition: transform .16s ease, stroke .16s ease; transform-box: fill-box; transform-origin: center; }
.hex:hover, .hex:focus { transform: scale(1.16); stroke: #1D1D1F; stroke-width: 1.4; outline: none; }
.legend-swatch { stroke: #FFFFFF; stroke-width: 0.5; }
@media (prefers-reduced-motion: reduce) { .hex { transition: none; } .hex:hover, .hex:focus { transform: none; } }
@media (prefers-contrast: more){.hex{stroke:#8E8E93;stroke-width:1;}.legend-swatch{stroke:#6E6E73;stroke-width:1;}[fill="#6E6E73"]{fill:#3A3A3C;}[fill="#E9ECF1"]{fill:#C7CCD4;}}
@media (prefers-color-scheme: dark){
  [fill="#FFFFFF"]{fill:#0B0B0C;}
  [fill="#1D1D1F"]{fill:#F2F2F7;}
  [fill="#6E6E73"]{fill:#9C9CA3;}
  [style*="multiply"]{mix-blend-mode:screen;}
  [fill="#DCE7F4"]{fill:#0E1626;} [fill="#FBFCFE"]{fill:#141618;} [fill="#E9ECF1"]{fill:#26262A;} .hex:hover, .hex:focus{stroke:#F2F2F7;}
}
</style>
<rect width="1280" height="900" fill="#FFFFFF"/>
<text x="64.0" y="70" font-size="34" font-weight="700" fill="#1D1D1F">Bike-share demand clusters on the downtown core</text>
<text x="64.0" y="106" font-size="20" fill="#6E6E73">Morning trips (7-10 AM) per hexagonal bin across the metro service area · one hex ≈ 400 m · illustrative</text>
<rect x="64.0" y="168.0" width="848.0" height="684.0" rx="22" fill="#DCE7F4"/>
<path d="M114.9,236.4 L352.3,195.4 L572.8,222.7 L759.4,209.0 L869.6,291.1 L886.6,441.6 L793.3,523.7 L827.2,646.8 L725.4,756.2 L572.8,715.2 L505.0,797.3 L369.3,824.6 L250.6,783.6 L148.8,674.2 L97.9,523.7 L140.3,373.2Z" fill="#FBFCFE" stroke="#9FB4CE" stroke-width="2" stroke-linejoin="round"/>
<g role="list" aria-label="hexagonal density bins">
<path class="hex" d="M349.79,168.45 L375.38,183.22 L375.38,212.78 L349.79,227.55 L324.20,212.78 L324.20,183.22Z" fill="#E9ECF1" stroke="#FFFFFF" stroke-width="1.6" tabindex="0" role="listitem"><title>no trips</title></path>
<path class="hex" d="M167.92,213.45 L193.51,228.22 L193.51,257.77 L167.92,272.55 L142.33,257.77 L142.33,228.22Z" fill="#E9ECF1" stroke="#FFFFFF" stroke-width="1.6" tabindex="0" role="listitem"><title>no trips</title></path>
<path class="hex" d="M219.88,213.45 L245.48,228.22 L245.48,257.77 L219.88,272.55 L194.29,257.77 L194.29,228.22Z" fill="#E9ECF1" stroke="#FFFFFF" stroke-width="1.6" tabindex="0" role="listitem"><title>no trips</title></path>
<path class="hex" d="M271.85,213.45 L297.44,228.22 L297.44,257.77 L271.85,272.55 L246.26,257.77 L246.26,228.22Z" fill="#E2ECFA" stroke="#FFFFFF" stroke-width="1.6" tabindex="0" role="listitem"><title>1 trip</title></path>
<path class="hex" d="M323.81,213.45 L349.40,228.22 L349.40,257.77 L323.81,272.55 L298.22,257.77 L298.22,228.22Z" fill="#E2ECFA" stroke="#FFFFFF" stroke-width="1.6" tabindex="0" role="listitem"><title>1 trip</title></path>
<path class="hex" d="M375.77,213.45 L401.36,228.22 L401.36,257.77 L375.77,272.55 L350.18,257.77 L350.18,228.22Z" fill="#DDEAFA" stroke="#FFFFFF" stroke-width="1.6" tabindex="0" role="listitem"><title>2 trips</title></path>
<path class="hex" d="M427.73,213.45 L453.32,228.22 L453.32,257.77 L427.73,272.55 L402.14,257.77 L402.14,228.22Z" fill="#DDEAFA" stroke="#FFFFFF" stroke-width="1.6" tabindex="0" role="listitem"><title>2 trips</title></path>
<path class="hex" d="M479.69,213.45 L505.28,228.22 L505.28,257.77 L479.69,272.55 L454.10,257.77 L454.10,228.22Z" fill="#D5E6FA" stroke="#FFFFFF" stroke-width="1.6" tabindex="0" role="listitem"><title>4 trips</title></path>
<path class="hex" d="M531.65,213.45 L557.24,228.22 L557.24,257.77 L531.65,272.55 L506.06,257.77 L506.06,228.22Z" fill="#D2E4FB" stroke="#FFFFFF" stroke-width="1.6" tabindex="0" role="listitem"><title>5 trips</title></path>
<path class="hex" d="M583.62,213.45 L609.21,228.22 L609.21,257.77 L583.62,272.55 L558.02,257.77 L558.02,228.22Z" fill="#C5DDFB" stroke="#FFFFFF" stroke-width="1.6" tabindex="0" role="listitem"><title>9 trips</title></path>
<path class="hex" d="M635.58,213.45 L661.17,228.22 L661.17,257.77 L635.58,272.55 L609.99,257.77 L609.99,228.22Z" fill="#BAD8FB" stroke="#FFFFFF" stroke-width="1.6" tabindex="0" role="listitem"><title>13 trips</title></path>
<path class="hex" d="M687.54,213.45 L713.13,228.22 L713.13,257.77 L687.54,272.55 L661.95,257.77 L661.95,228.22Z" fill="#BFDAFB" stroke="#FFFFFF" stroke-width="1.6" tabindex="0" role="listitem"><title>11 trips</title></path>
<path class="hex" d="M739.50,213.45 L765.09,228.22 L765.09,257.77 L739.50,272.55 L713.91,257.77 L713.91,228.22Z" fill="#C2DCFB" stroke="#FFFFFF" stroke-width="1.6" tabindex="0" role="listitem"><title>10 trips</title></path>
<path class="hex" d="M791.46,213.45 L817.05,228.22 L817.05,257.77 L791.46,272.55 L765.87,257.77 L765.87,228.22Z" fill="#E2ECFA" stroke="#FFFFFF" stroke-width="1.6" tabindex="0" role="listitem"><title>1 trip</title></path>
<path class="hex" d="M141.94,258.45 L167.53,273.23 L167.53,302.77 L141.94,317.55 L116.35,302.77 L116.35,273.23Z" fill="#E9ECF1" stroke="#FFFFFF" stroke-width="1.6" tabindex="0" role="listitem"><title>no trips</title></path>
<path class="hex" d="M193.90,258.45 L219.49,273.23 L219.49,302.77 L193.90,317.55 L168.31,302.77 L168.31,273.23Z" fill="#E9ECF1" stroke="#FFFFFF" stroke-width="1.6" tabindex="0" role="listitem"><title>no trips</title></path>
<path class="hex" d="M245.87,258.45 L271.46,273.23 L271.46,302.77 L245.87,317.55 L220.27,302.77 L220.27,273.23Z" fill="#D9E8FA" stroke="#FFFFFF" stroke-width="1.6" tabindex="0" role="listitem"><title>3 trips</title></path>
<path class="hex" d="M297.83,258.45 L323.42,273.23 L323.42,302.77 L297.83,317.55 L272.24,302.77 L272.24,273.23Z" fill="#C5DDFB" stroke="#FFFFFF" stroke-width="1.6" tabindex="0" role="listitem"><title>9 trips</title></path>
<path class="hex" d="M349.79,258.45 L375.38,273.23 L375.38,302.77 L349.79,317.55 L324.20,302.77 L324.20,273.23Z" fill="#C2DCFB" stroke="#FFFFFF" stroke-width="1.6" tabindex="0" role="listitem"><title>10 trips</title></path>
<path class="hex" d="M401.75,258.45 L427.34,273.23 L427.34,302.77 L401.75,317.55 L376.16,302.77 L376.16,273.23Z" fill="#A1CBFC" stroke="#FFFFFF" stroke-width="1.6" tabindex="0" role="listitem"><title>23 trips</title></path>
<path class="hex" d="M453.71,258.45 L479.30,273.23 L479.30,302.77 L453.71,317.55 L428.12,302.77 L428.12,273.23Z" fill="#A1CBFC" stroke="#FFFFFF" stroke-width="1.6" tabindex="0" role="listitem"><title>23 trips</title></path>
<path class="hex" d="M505.67,258.45 L531.26,273.23 L531.26,302.77 L505.67,317.55 L480.08,302.77 L480.08,273.23Z" fill="#BAD8FB" stroke="#FFFFFF" stroke-width="1.6" tabindex="0" role="listitem"><title>13 trips</title></path>
<path class="hex" d="M557.63,258.45 L583.23,273.23 L583.23,302.77 L557.63,317.55 L532.04,302.77 L532.04,273.23Z" fill="#C5DDFB" stroke="#FFFFFF" stroke-width="1.6" tabindex="0" role="listitem"><title>9 trips</title></path>
<path class="hex" d="M609.60,258.45 L635.19,273.23 L635.19,302.77 L609.60,317.55 L584.00,302.77 L584.00,273.23Z" fill="#C2DCFB" stroke="#FFFFFF" stroke-width="1.6" tabindex="0" role="listitem"><title>10 trips</title></path>
<path class="hex" d="M661.56,258.45 L687.15,273.23 L687.15,302.77 L661.56,317.55 L635.97,302.77 L635.97,273.23Z" fill="#A3CCFC" stroke="#FFFFFF" stroke-width="1.6" tabindex="0" role="listitem"><title>22 trips</title></path>
<path class="hex" d="M713.52,258.45 L739.11,273.23 L739.11,302.77 L713.52,317.55 L687.93,302.77 L687.93,273.23Z" fill="#B4D5FB" stroke="#FFFFFF" stroke-width="1.6" tabindex="0" role="listitem"><title>15 trips</title></path>
<path class="hex" d="M765.48,258.45 L791.07,273.23 L791.07,302.77 L765.48,317.55 L739.89,302.77 L739.89,273.23Z" fill="#D5E6FA" stroke="#FFFFFF" stroke-width="1.6" tabindex="0" role="listitem"><title>4 trips</title></path>
<path class="hex" d="M817.44,258.45 L843.03,273.23 L843.03,302.77 L817.44,317.55 L791.85,302.77 L791.85,273.23Z" fill="#D9E8FA" stroke="#FFFFFF" stroke-width="1.6" tabindex="0" role="listitem"><title>3 trips</title></path>
<path class="hex" d="M167.92,303.45 L193.51,318.23 L193.51,347.77 L167.92,362.55 L142.33,347.77 L142.33,318.23Z" fill="#E2ECFA" stroke="#FFFFFF" stroke-width="1.6" tabindex="0" role="listitem"><title>1 trip</title></path>
<path class="hex" d="M219.88,303.45 L245.48,318.23 L245.48,347.77 L219.88,362.55 L194.29,347.77 L194.29,318.23Z" fill="#E2ECFA" stroke="#FFFFFF" stroke-width="1.6" tabindex="0" role="listitem"><title>1 trip</title></path>
<path class="hex" d="M271.85,303.45 L297.44,318.23 L297.44,347.77 L271.85,362.55 L246.26,347.77 L246.26,318.23Z" fill="#C2DCFB" stroke="#FFFFFF" stroke-width="1.6" tabindex="0" role="listitem"><title>10 trips</title></path>
<path class="hex" d="M323.81,303.45 L349.40,318.23 L349.40,347.77 L323.81,362.55 L298.22,347.77 L298.22,318.23Z" fill="#72B3FD" stroke="#FFFFFF" stroke-width="1.6" tabindex="0" role="listitem"><title>46 trips</title></path>
<path class="hex" d="M375.77,303.45 L401.36,318.23 L401.36,347.77 L375.77,362.55 L350.18,347.77 L350.18,318.23Z" fill="#58A7FD" stroke="#FFFFFF" stroke-width="1.6" tabindex="0" role="listitem"><title>60 trips</title></path>
<path class="hex" d="M427.73,303.45 L453.32,318.23 L453.32,347.77 L427.73,362.55 L402.14,347.77 L402.14,318.23Z" fill="#3796FE" stroke="#FFFFFF" stroke-width="1.6" tabindex="0" role="listitem"><title>80 trips</title></path>
<path class="hex" d="M479.69,303.45 L505.28,318.23 L505.28,347.77 L479.69,362.55 L454.10,347.77 L454.10,318.23Z" fill="#7BB8FC" stroke="#FFFFFF" stroke-width="1.6" tabindex="0" role="listitem"><title>41 trips</title></path>
<path class="hex" d="M531.65,303.45 L557.24,318.23 L557.24,347.77 L531.65,362.55 L506.06,347.77 L506.06,318.23Z" fill="#AFD2FB" stroke="#FFFFFF" stroke-width="1.6" tabindex="0" role="listitem"><title>17 trips</title></path>
<path class="hex" d="M583.62,303.45 L609.21,318.23 L609.21,347.77 L583.62,362.55 L558.02,347.77 L558.02,318.23Z" fill="#9CC9FC" stroke="#FFFFFF" stroke-width="1.6" tabindex="0" role="listitem"><title>25 trips</title></path>
<path class="hex" d="M635.58,303.45 L661.17,318.23 L661.17,347.77 L635.58,362.55 L609.99,347.77 L609.99,318.23Z" fill="#96C6FC" stroke="#FFFFFF" stroke-width="1.6" tabindex="0" role="listitem"><title>28 trips</title></path>
<path class="hex" d="M687.54,303.45 L713.13,318.23 L713.13,347.77 L687.54,362.55 L661.95,347.77 L661.95,318.23Z" fill="#A8CFFB" stroke="#FFFFFF" stroke-width="1.6" tabindex="0" role="listitem"><title>20 trips</title></path>
<path class="hex" d="M739.50,303.45 L765.09,318.23 L765.09,347.77 L739.50,362.55 L713.91,347.77 L713.91,318.23Z" fill="#BCD9FB" stroke="#FFFFFF" stroke-width="1.6" tabindex="0" role="listitem"><title>12 trips</title></path>
<path class="hex" d="M791.46,303.45 L817.05,318.23 L817.05,347.77 L791.46,362.55 L765.87,347.77 L765.87,318.23Z" fill="#BFDAFB" stroke="#FFFFFF" stroke-width="1.6" tabindex="0" role="listitem"><title>11 trips</title></path>
<path class="hex" d="M843.42,303.45 L869.01,318.23 L869.01,347.77 L843.42,362.55 L817.83,347.77 L817.83,318.23Z" fill="#E9ECF1" stroke="#FFFFFF" stroke-width="1.6" tabindex="0" role="listitem"><title>no trips</title></path>
<path class="hex" d="M141.94,348.45 L167.53,363.23 L167.53,392.77 L141.94,407.55 L116.35,392.77 L116.35,363.23Z" fill="#E9ECF1" stroke="#FFFFFF" stroke-width="1.6" tabindex="0" role="listitem"><title>no trips</title></path>
<path class="hex" d="M193.90,348.45 L219.49,363.23 L219.49,392.77 L193.90,407.55 L168.31,392.77 L168.31,363.23Z" fill="#E2ECFA" stroke="#FFFFFF" stroke-width="1.6" tabindex="0" role="listitem"><title>1 trip</title></path>
<path class="hex" d="M245.87,348.45 L271.46,363.23 L271.46,392.77 L245.87,407.55 L220.27,392.77 L220.27,363.23Z" fill="#BAD8FB" stroke="#FFFFFF" stroke-width="1.6" tabindex="0" role="listitem"><title>13 trips</title></path>
<path class="hex" d="M297.83,348.45 L323.42,363.23 L323.42,392.77 L297.83,407.55 L272.24,392.77 L272.24,363.23Z" fill="#6AB0FD" stroke="#FFFFFF" stroke-width="1.6" tabindex="0" role="listitem"><title>50 trips</title></path>
<path class="hex" d="M349.79,348.45 L375.38,363.23 L375.38,392.77 L349.79,407.55 L324.20,392.77 L324.20,363.23Z" fill="#3293FE" stroke="#FFFFFF" stroke-width="1.6" tabindex="0" role="listitem"><title>83 trips</title></path>
<path class="hex" d="M401.75,348.45 L427.34,363.23 L427.34,392.77 L401.75,407.55 L376.16,392.77 L376.16,363.23Z" fill="#228BFE" stroke="#FFFFFF" stroke-width="1.6" tabindex="0" role="listitem"><title>93 trips</title></path>
<path class="hex" d="M453.71,348.45 L479.30,363.23 L479.30,392.77 L453.71,407.55 L428.12,392.77 L428.12,363.23Z" fill="#0A7FFF" stroke="#FFFFFF" stroke-width="1.6" tabindex="0" role="listitem"><title>109 trips</title></path>
<path class="hex" d="M505.67,348.45 L531.26,363.23 L531.26,392.77 L505.67,407.55 L480.08,392.77 L480.08,363.23Z" fill="#76B5FC" stroke="#FFFFFF" stroke-width="1.6" tabindex="0" role="listitem"><title>44 trips</title></path>
<path class="hex" d="M557.63,348.45 L583.23,363.23 L583.23,392.77 L557.63,407.55 L532.04,392.77 L532.04,363.23Z" fill="#98C7FC" stroke="#FFFFFF" stroke-width="1.6" tabindex="0" role="listitem"><title>27 trips</title></path>
<path class="hex" d="M609.60,348.45 L635.19,363.23 L635.19,392.77 L609.60,407.55 L584.00,392.77 L584.00,363.23Z" fill="#9CC9FC" stroke="#FFFFFF" stroke-width="1.6" tabindex="0" role="listitem"><title>25 trips</title></path>
<path class="hex" d="M661.56,348.45 L687.15,363.23 L687.15,392.77 L661.56,407.55 L635.97,392.77 L635.97,363.23Z" fill="#AFD2FB" stroke="#FFFFFF" stroke-width="1.6" tabindex="0" role="listitem"><title>17 trips</title></path>
<path class="hex" d="M713.52,348.45 L739.11,363.23 L739.11,392.77 L713.52,407.55 L687.93,392.77 L687.93,363.23Z" fill="#94C5FC" stroke="#FFFFFF" stroke-width="1.6" tabindex="0" role="listitem"><title>29 trips</title></path>
<path class="hex" d="M765.48,348.45 L791.07,363.23 L791.07,392.77 L765.48,407.55 L739.89,392.77 L739.89,363.23Z" fill="#CEE2FB" stroke="#FFFFFF" stroke-width="1.6" tabindex="0" role="listitem"><title>6 trips</title></path>
<path class="hex" d="M817.44,348.45 L843.03,363.23 L843.03,392.77 L817.44,407.55 L791.85,392.77 L791.85,363.23Z" fill="#DDEAFA" stroke="#FFFFFF" stroke-width="1.6" tabindex="0" role="listitem"><title>2 trips</title></path>
<path class="hex" d="M869.40,348.45 L894.99,363.23 L894.99,392.77 L869.40,407.55 L843.81,392.77 L843.81,363.23Z" fill="#E2ECFA" stroke="#FFFFFF" stroke-width="1.6" tabindex="0" role="listitem"><title>1 trip</title></path>
<path class="hex" d="M167.92,393.45 L193.51,408.23 L193.51,437.77 L167.92,452.55 L142.33,437.77 L142.33,408.23Z" fill="#D2E4FB" stroke="#FFFFFF" stroke-width="1.6" tabindex="0" role="listitem"><title>5 trips</title></path>
<path class="hex" d="M219.88,393.45 L245.48,408.23 L245.48,437.77 L219.88,452.55 L194.29,437.77 L194.29,408.23Z" fill="#CBE0FB" stroke="#FFFFFF" stroke-width="1.6" tabindex="0" role="listitem"><title>7 trips</title></path>
<path class="hex" d="M271.85,393.45 L297.44,408.23 L297.44,437.77 L271.85,452.55 L246.26,437.77 L246.26,408.23Z" fill="#A1CBFC" stroke="#FFFFFF" stroke-width="1.6" tabindex="0" role="listitem"><title>23 trips</title></path>
<path class="hex" d="M323.81,393.45 L349.40,408.23 L349.40,437.77 L323.81,452.55 L298.22,437.77 L298.22,408.23Z" fill="#429BFE" stroke="#FFFFFF" stroke-width="1.6" tabindex="0" role="listitem"><title>73 trips</title></path>
<path class="hex" d="M375.77,393.45 L401.36,408.23 L401.36,437.77 L375.77,452.55 L350.18,437.77 L350.18,408.23Z" fill="#0A7FFF" stroke="#FFFFFF" stroke-width="1.6" tabindex="0" role="listitem"><title>109 trips</title></path>
<path class="hex" d="M427.73,393.45 L453.32,408.23 L453.32,437.77 L427.73,452.55 L402.14,437.77 L402.14,408.23Z" fill="#007AFF" stroke="#FFFFFF" stroke-width="1.6" tabindex="0" role="listitem"><title>116 trips</title></path>
<path class="hex" d="M479.69,393.45 L505.28,408.23 L505.28,437.77 L479.69,452.55 L454.10,437.77 L454.10,408.23Z" fill="#3293FE" stroke="#FFFFFF" stroke-width="1.6" tabindex="0" role="listitem"><title>83 trips</title></path>
<path class="hex" d="M531.65,393.45 L557.24,408.23 L557.24,437.77 L531.65,452.55 L506.06,437.77 L506.06,408.23Z" fill="#67AEFD" stroke="#FFFFFF" stroke-width="1.6" tabindex="0" role="listitem"><title>52 trips</title></path>
<path class="hex" d="M583.62,393.45 L609.21,408.23 L609.21,437.77 L583.62,452.55 L558.02,437.77 L558.02,408.23Z" fill="#A1CBFC" stroke="#FFFFFF" stroke-width="1.6" tabindex="0" role="listitem"><title>23 trips</title></path>
<path class="hex" d="M635.58,393.45 L661.17,408.23 L661.17,437.77 L635.58,452.55 L609.99,437.77 L609.99,408.23Z" fill="#94C5FC" stroke="#FFFFFF" stroke-width="1.6" tabindex="0" role="listitem"><title>29 trips</title></path>
<path class="hex" d="M687.54,393.45 L713.13,408.23 L713.13,437.77 L687.54,452.55 L661.95,437.77 L661.95,408.23Z" fill="#96C6FC" stroke="#FFFFFF" stroke-width="1.6" tabindex="0" role="listitem"><title>28 trips</title></path>
<path class="hex" d="M739.50,393.45 L765.09,408.23 L765.09,437.77 L739.50,452.55 L713.91,437.77 L713.91,408.23Z" fill="#C5DDFB" stroke="#FFFFFF" stroke-width="1.6" tabindex="0" role="listitem"><title>9 trips</title></path>
<path class="hex" d="M791.46,393.45 L817.05,408.23 L817.05,437.77 L791.46,452.55 L765.87,437.77 L765.87,408.23Z" fill="#E9ECF1" stroke="#FFFFFF" stroke-width="1.6" tabindex="0" role="listitem"><title>no trips</title></path>
<path class="hex" d="M843.42,393.45 L869.01,408.23 L869.01,437.77 L843.42,452.55 L817.83,437.77 L817.83,408.23Z" fill="#DDEAFA" stroke="#FFFFFF" stroke-width="1.6" tabindex="0" role="listitem"><title>2 trips</title></path>
<path class="hex" d="M141.94,438.45 L167.53,453.23 L167.53,482.77 L141.94,497.55 L116.35,482.77 L116.35,453.23Z" fill="#D2E4FB" stroke="#FFFFFF" stroke-width="1.6" tabindex="0" role="listitem"><title>5 trips</title></path>
<path class="hex" d="M193.90,438.45 L219.49,453.23 L219.49,482.77 L193.90,497.55 L168.31,482.77 L168.31,453.23Z" fill="#D5E6FA" stroke="#FFFFFF" stroke-width="1.6" tabindex="0" role="listitem"><title>4 trips</title></path>
<path class="hex" d="M245.87,438.45 L271.46,453.23 L271.46,482.77 L245.87,497.55 L220.27,482.77 L220.27,453.23Z" fill="#ADD1FB" stroke="#FFFFFF" stroke-width="1.6" tabindex="0" role="listitem"><title>18 trips</title></path>
<path class="hex" d="M297.83,438.45 L323.42,453.23 L323.42,482.77 L297.83,497.55 L272.24,482.77 L272.24,453.23Z" fill="#7FBAFC" stroke="#FFFFFF" stroke-width="1.6" tabindex="0" role="listitem"><title>39 trips</title></path>
<path class="hex" d="M349.79,438.45 L375.38,453.23 L375.38,482.77 L349.79,497.55 L324.20,482.77 L324.20,453.23Z" fill="#5CA8FD" stroke="#FFFFFF" stroke-width="1.6" tabindex="0" role="listitem"><title>58 trips</title></path>
<path class="hex" d="M401.75,438.45 L427.34,453.23 L427.34,482.77 L401.75,497.55 L376.16,482.77 L376.16,453.23Z" fill="#3796FE" stroke="#FFFFFF" stroke-width="1.6" tabindex="0" role="listitem"><title>80 trips</title></path>
<path class="hex" d="M453.71,438.45 L479.30,453.23 L479.30,482.77 L453.71,497.55 L428.12,482.77 L428.12,453.23Z" fill="#419BFE" stroke="#FFFFFF" stroke-width="1.6" tabindex="0" role="listitem"><title>74 trips</title></path>
<path class="hex" d="M505.67,438.45 L531.26,453.23 L531.26,482.77 L505.67,497.55 L480.08,482.77 L480.08,453.23Z" fill="#479EFD" stroke="#FFFFFF" stroke-width="1.6" tabindex="0" role="listitem"><title>70 trips</title></path>
<path class="hex" d="M557.63,438.45 L583.23,453.23 L583.23,482.77 L557.63,497.55 L532.04,482.77 L532.04,453.23Z" fill="#79B7FC" stroke="#FFFFFF" stroke-width="1.6" tabindex="0" role="listitem"><title>42 trips</title></path>
<path class="hex" d="M609.60,438.45 L635.19,453.23 L635.19,482.77 L609.60,497.55 L584.00,482.77 L584.00,453.23Z" fill="#94C5FC" stroke="#FFFFFF" stroke-width="1.6" tabindex="0" role="listitem"><title>29 trips</title></path>
<path class="hex" d="M661.56,438.45 L687.15,453.23 L687.15,482.77 L661.56,497.55 L635.97,482.77 L635.97,453.23Z" fill="#ADD1FB" stroke="#FFFFFF" stroke-width="1.6" tabindex="0" role="listitem"><title>18 trips</title></path>
<path class="hex" d="M713.52,438.45 L739.11,453.23 L739.11,482.77 L713.52,497.55 L687.93,482.77 L687.93,453.23Z" fill="#D9E8FA" stroke="#FFFFFF" stroke-width="1.6" tabindex="0" role="listitem"><title>3 trips</title></path>
<path class="hex" d="M765.48,438.45 L791.07,453.23 L791.07,482.77 L765.48,497.55 L739.89,482.77 L739.89,453.23Z" fill="#D5E6FA" stroke="#FFFFFF" stroke-width="1.6" tabindex="0" role="listitem"><title>4 trips</title></path>
<path class="hex" d="M817.44,438.45 L843.03,453.23 L843.03,482.77 L817.44,497.55 L791.85,482.77 L791.85,453.23Z" fill="#E2ECFA" stroke="#FFFFFF" stroke-width="1.6" tabindex="0" role="listitem"><title>1 trip</title></path>
<path class="hex" d="M115.96,483.45 L141.55,498.23 L141.55,527.77 L115.96,542.55 L90.37,527.77 L90.37,498.23Z" fill="#CBE0FB" stroke="#FFFFFF" stroke-width="1.6" tabindex="0" role="listitem"><title>7 trips</title></path>
<path class="hex" d="M167.92,483.45 L193.51,498.23 L193.51,527.77 L167.92,542.55 L142.33,527.77 L142.33,498.23Z" fill="#BCD9FB" stroke="#FFFFFF" stroke-width="1.6" tabindex="0" role="listitem"><title>12 trips</title></path>
<path class="hex" d="M219.88,483.45 L245.48,498.23 L245.48,527.77 L219.88,542.55 L194.29,527.77 L194.29,498.23Z" fill="#B7D6FB" stroke="#FFFFFF" stroke-width="1.6" tabindex="0" role="listitem"><title>14 trips</title></path>
<path class="hex" d="M271.85,483.45 L297.44,498.23 L297.44,527.77 L271.85,542.55 L246.26,527.77 L246.26,498.23Z" fill="#9FCAFC" stroke="#FFFFFF" stroke-width="1.6" tabindex="0" role="listitem"><title>24 trips</title></path>
<path class="hex" d="M323.81,483.45 L349.40,498.23 L349.40,527.77 L323.81,542.55 L298.22,527.77 L298.22,498.23Z" fill="#92C3FC" stroke="#FFFFFF" stroke-width="1.6" tabindex="0" role="listitem"><title>30 trips</title></path>
<path class="hex" d="M375.77,483.45 L401.36,498.23 L401.36,527.77 L375.77,542.55 L350.18,527.77 L350.18,498.23Z" fill="#72B3FD" stroke="#FFFFFF" stroke-width="1.6" tabindex="0" role="listitem"><title>46 trips</title></path>
<path class="hex" d="M427.73,483.45 L453.32,498.23 L453.32,527.77 L427.73,542.55 L402.14,527.77 L402.14,498.23Z" fill="#52A3FD" stroke="#FFFFFF" stroke-width="1.6" tabindex="0" role="listitem"><title>64 trips</title></path>
<path class="hex" d="M479.69,483.45 L505.28,498.23 L505.28,527.77 L479.69,542.55 L454.10,527.77 L454.10,498.23Z" fill="#70B2FD" stroke="#FFFFFF" stroke-width="1.6" tabindex="0" role="listitem"><title>47 trips</title></path>
<path class="hex" d="M531.65,483.45 L557.24,498.23 L557.24,527.77 L531.65,542.55 L506.06,527.77 L506.06,498.23Z" fill="#7FBAFC" stroke="#FFFFFF" stroke-width="1.6" tabindex="0" role="listitem"><title>39 trips</title></path>
<path class="hex" d="M583.62,483.45 L609.21,498.23 L609.21,527.77 L583.62,542.55 L558.02,527.77 L558.02,498.23Z" fill="#6AB0FD" stroke="#FFFFFF" stroke-width="1.6" tabindex="0" role="listitem"><title>50 trips</title></path>
<path class="hex" d="M635.58,483.45 L661.17,498.23 L661.17,527.77 L635.58,542.55 L609.99,527.77 L609.99,498.23Z" fill="#A1CBFC" stroke="#FFFFFF" stroke-width="1.6" tabindex="0" role="listitem"><title>23 trips</title></path>
<path class="hex" d="M687.54,483.45 L713.13,498.23 L713.13,527.77 L687.54,542.55 L661.95,527.77 L661.95,498.23Z" fill="#ADD1FB" stroke="#FFFFFF" stroke-width="1.6" tabindex="0" role="listitem"><title>18 trips</title></path>
<path class="hex" d="M739.50,483.45 L765.09,498.23 L765.09,527.77 L739.50,542.55 L713.91,527.77 L713.91,498.23Z" fill="#CBE0FB" stroke="#FFFFFF" stroke-width="1.6" tabindex="0" role="listitem"><title>7 trips</title></path>
<path class="hex" d="M791.46,483.45 L817.05,498.23 L817.05,527.77 L791.46,542.55 L765.87,527.77 L765.87,498.23Z" fill="#DDEAFA" stroke="#FFFFFF" stroke-width="1.6" tabindex="0" role="listitem"><title>2 trips</title></path>
<path class="hex" d="M141.94,528.45 L167.53,543.23 L167.53,572.77 L141.94,587.55 L116.35,572.77 L116.35,543.23Z" fill="#BFDAFB" stroke="#FFFFFF" stroke-width="1.6" tabindex="0" role="listitem"><title>11 trips</title></path>
<path class="hex" d="M193.90,528.45 L219.49,543.23 L219.49,572.77 L193.90,587.55 L168.31,572.77 L168.31,543.23Z" fill="#AAD0FB" stroke="#FFFFFF" stroke-width="1.6" tabindex="0" role="listitem"><title>19 trips</title></path>
<path class="hex" d="M245.87,528.45 L271.46,543.23 L271.46,572.77 L245.87,587.55 L220.27,572.77 L220.27,543.23Z" fill="#9AC8FC" stroke="#FFFFFF" stroke-width="1.6" tabindex="0" role="listitem"><title>26 trips</title></path>
<path class="hex" d="M297.83,528.45 L323.42,543.23 L323.42,572.77 L297.83,587.55 L272.24,572.77 L272.24,543.23Z" fill="#8BC0FC" stroke="#FFFFFF" stroke-width="1.6" tabindex="0" role="listitem"><title>33 trips</title></path>
<path class="hex" d="M349.79,528.45 L375.38,543.23 L375.38,572.77 L349.79,587.55 L324.20,572.77 L324.20,543.23Z" fill="#A6CEFB" stroke="#FFFFFF" stroke-width="1.6" tabindex="0" role="listitem"><title>21 trips</title></path>
<path class="hex" d="M401.75,528.45 L427.34,543.23 L427.34,572.77 L401.75,587.55 L376.16,572.77 L376.16,543.23Z" fill="#8DC1FC" stroke="#FFFFFF" stroke-width="1.6" tabindex="0" role="listitem"><title>32 trips</title></path>
<path class="hex" d="M453.71,528.45 L479.30,543.23 L479.30,572.77 L453.71,587.55 L428.12,572.77 L428.12,543.23Z" fill="#89BFFC" stroke="#FFFFFF" stroke-width="1.6" tabindex="0" role="listitem"><title>34 trips</title></path>
<path class="hex" d="M505.67,528.45 L531.26,543.23 L531.26,572.77 L505.67,587.55 L480.08,572.77 L480.08,543.23Z" fill="#69AFFD" stroke="#FFFFFF" stroke-width="1.6" tabindex="0" role="listitem"><title>51 trips</title></path>
<path class="hex" d="M557.63,528.45 L583.23,543.23 L583.23,572.77 L557.63,587.55 L532.04,572.77 L532.04,543.23Z" fill="#7DB9FC" stroke="#FFFFFF" stroke-width="1.6" tabindex="0" role="listitem"><title>40 trips</title></path>
<path class="hex" d="M609.60,528.45 L635.19,543.23 L635.19,572.77 L609.60,587.55 L584.00,572.77 L584.00,543.23Z" fill="#87BEFC" stroke="#FFFFFF" stroke-width="1.6" tabindex="0" role="listitem"><title>35 trips</title></path>
<path class="hex" d="M661.56,528.45 L687.15,543.23 L687.15,572.77 L661.56,587.55 L635.97,572.77 L635.97,543.23Z" fill="#B2D4FB" stroke="#FFFFFF" stroke-width="1.6" tabindex="0" role="listitem"><title>16 trips</title></path>
<path class="hex" d="M713.52,528.45 L739.11,543.23 L739.11,572.77 L713.52,587.55 L687.93,572.77 L687.93,543.23Z" fill="#C2DCFB" stroke="#FFFFFF" stroke-width="1.6" tabindex="0" role="listitem"><title>10 trips</title></path>
<path class="hex" d="M765.48,528.45 L791.07,543.23 L791.07,572.77 L765.48,587.55 L739.89,572.77 L739.89,543.23Z" fill="#D2E4FB" stroke="#FFFFFF" stroke-width="1.6" tabindex="0" role="listitem"><title>5 trips</title></path>
<path class="hex" d="M167.92,573.45 L193.51,588.23 L193.51,617.77 L167.92,632.55 L142.33,617.77 L142.33,588.23Z" fill="#BFDAFB" stroke="#FFFFFF" stroke-width="1.6" tabindex="0" role="listitem"><title>11 trips</title></path>
<path class="hex" d="M219.88,573.45 L245.48,588.23 L245.48,617.77 L219.88,632.55 L194.29,617.77 L194.29,588.23Z" fill="#B7D6FB" stroke="#FFFFFF" stroke-width="1.6" tabindex="0" role="listitem"><title>14 trips</title></path>
<path class="hex" d="M271.85,573.45 L297.44,588.23 L297.44,617.77 L271.85,632.55 L246.26,617.77 L246.26,588.23Z" fill="#90C2FC" stroke="#FFFFFF" stroke-width="1.6" tabindex="0" role="listitem"><title>31 trips</title></path>
<path class="hex" d="M323.81,573.45 L349.40,588.23 L349.40,617.77 L323.81,632.55 L298.22,617.77 L298.22,588.23Z" fill="#A6CEFB" stroke="#FFFFFF" stroke-width="1.6" tabindex="0" role="listitem"><title>21 trips</title></path>
<path class="hex" d="M375.77,573.45 L401.36,588.23 L401.36,617.77 L375.77,632.55 L350.18,617.77 L350.18,588.23Z" fill="#B7D6FB" stroke="#FFFFFF" stroke-width="1.6" tabindex="0" role="listitem"><title>14 trips</title></path>
<path class="hex" d="M427.73,573.45 L453.32,588.23 L453.32,617.77 L427.73,632.55 L402.14,617.77 L402.14,588.23Z" fill="#A3CCFC" stroke="#FFFFFF" stroke-width="1.6" tabindex="0" role="listitem"><title>22 trips</title></path>
<path class="hex" d="M479.69,573.45 L505.28,588.23 L505.28,617.77 L479.69,632.55 L454.10,617.77 L454.10,588.23Z" fill="#ADD1FB" stroke="#FFFFFF" stroke-width="1.6" tabindex="0" role="listitem"><title>18 trips</title></path>
<path class="hex" d="M531.65,573.45 L557.24,588.23 L557.24,617.77 L531.65,632.55 L506.06,617.77 L506.06,588.23Z" fill="#90C2FC" stroke="#FFFFFF" stroke-width="1.6" tabindex="0" role="listitem"><title>31 trips</title></path>
<path class="hex" d="M583.62,573.45 L609.21,588.23 L609.21,617.77 L583.62,632.55 L558.02,617.77 L558.02,588.23Z" fill="#A1CBFC" stroke="#FFFFFF" stroke-width="1.6" tabindex="0" role="listitem"><title>23 trips</title></path>
<path class="hex" d="M635.58,573.45 L661.17,588.23 L661.17,617.77 L635.58,632.55 L609.99,617.77 L609.99,588.23Z" fill="#B4D5FB" stroke="#FFFFFF" stroke-width="1.6" tabindex="0" role="listitem"><title>15 trips</title></path>
<path class="hex" d="M687.54,573.45 L713.13,588.23 L713.13,617.77 L687.54,632.55 L661.95,617.77 L661.95,588.23Z" fill="#C5DDFB" stroke="#FFFFFF" stroke-width="1.6" tabindex="0" role="listitem"><title>9 trips</title></path>
<path class="hex" d="M739.50,573.45 L765.09,588.23 L765.09,617.77 L739.50,632.55 L713.91,617.77 L713.91,588.23Z" fill="#D2E4FB" stroke="#FFFFFF" stroke-width="1.6" tabindex="0" role="listitem"><title>5 trips</title></path>
<path class="hex" d="M791.46,573.45 L817.05,588.23 L817.05,617.77 L791.46,632.55 L765.87,617.77 L765.87,588.23Z" fill="#E9ECF1" stroke="#FFFFFF" stroke-width="1.6" tabindex="0" role="listitem"><title>no trips</title></path>
<path class="hex" d="M141.94,618.45 L167.53,633.23 L167.53,662.77 L141.94,677.55 L116.35,662.77 L116.35,633.23Z" fill="#DDEAFA" stroke="#FFFFFF" stroke-width="1.6" tabindex="0" role="listitem"><title>2 trips</title></path>
<path class="hex" d="M193.90,618.45 L219.49,633.23 L219.49,662.77 L193.90,677.55 L168.31,662.77 L168.31,633.23Z" fill="#B7D6FB" stroke="#FFFFFF" stroke-width="1.6" tabindex="0" role="listitem"><title>14 trips</title></path>
<path class="hex" d="M245.87,618.45 L271.46,633.23 L271.46,662.77 L245.87,677.55 L220.27,662.77 L220.27,633.23Z" fill="#C2DCFB" stroke="#FFFFFF" stroke-width="1.6" tabindex="0" role="listitem"><title>10 trips</title></path>
<path class="hex" d="M297.83,618.45 L323.42,633.23 L323.42,662.77 L297.83,677.55 L272.24,662.77 L272.24,633.23Z" fill="#B4D5FB" stroke="#FFFFFF" stroke-width="1.6" tabindex="0" role="listitem"><title>15 trips</title></path>
<path class="hex" d="M349.79,618.45 L375.38,633.23 L375.38,662.77 L349.79,677.55 L324.20,662.77 L324.20,633.23Z" fill="#B4D5FB" stroke="#FFFFFF" stroke-width="1.6" tabindex="0" role="listitem"><title>15 trips</title></path>
<path class="hex" d="M401.75,618.45 L427.34,633.23 L427.34,662.77 L401.75,677.55 L376.16,662.77 L376.16,633.23Z" fill="#B7D6FB" stroke="#FFFFFF" stroke-width="1.6" tabindex="0" role="listitem"><title>14 trips</title></path>
<path class="hex" d="M453.71,618.45 L479.30,633.23 L479.30,662.77 L453.71,677.55 L428.12,662.77 L428.12,633.23Z" fill="#BCD9FB" stroke="#FFFFFF" stroke-width="1.6" tabindex="0" role="listitem"><title>12 trips</title></path>
<path class="hex" d="M505.67,618.45 L531.26,633.23 L531.26,662.77 L505.67,677.55 L480.08,662.77 L480.08,633.23Z" fill="#C5DDFB" stroke="#FFFFFF" stroke-width="1.6" tabindex="0" role="listitem"><title>9 trips</title></path>
<path class="hex" d="M557.63,618.45 L583.23,633.23 L583.23,662.77 L557.63,677.55 L532.04,662.77 L532.04,633.23Z" fill="#C5DDFB" stroke="#FFFFFF" stroke-width="1.6" tabindex="0" role="listitem"><title>9 trips</title></path>
<path class="hex" d="M609.60,618.45 L635.19,633.23 L635.19,662.77 L609.60,677.55 L584.00,662.77 L584.00,633.23Z" fill="#BFDAFB" stroke="#FFFFFF" stroke-width="1.6" tabindex="0" role="listitem"><title>11 trips</title></path>
<path class="hex" d="M661.56,618.45 L687.15,633.23 L687.15,662.77 L661.56,677.55 L635.97,662.77 L635.97,633.23Z" fill="#CEE2FB" stroke="#FFFFFF" stroke-width="1.6" tabindex="0" role="listitem"><title>6 trips</title></path>
<path class="hex" d="M713.52,618.45 L739.11,633.23 L739.11,662.77 L713.52,677.55 L687.93,662.77 L687.93,633.23Z" fill="#CBE0FB" stroke="#FFFFFF" stroke-width="1.6" tabindex="0" role="listitem"><title>7 trips</title></path>
<path class="hex" d="M765.48,618.45 L791.07,633.23 L791.07,662.77 L765.48,677.55 L739.89,662.77 L739.89,633.23Z" fill="#E9ECF1" stroke="#FFFFFF" stroke-width="1.6" tabindex="0" role="listitem"><title>no trips</title></path>
<path class="hex" d="M817.44,618.45 L843.03,633.23 L843.03,662.77 L817.44,677.55 L791.85,662.77 L791.85,633.23Z" fill="#E9ECF1" stroke="#FFFFFF" stroke-width="1.6" tabindex="0" role="listitem"><title>no trips</title></path>
<path class="hex" d="M167.92,663.45 L193.51,678.23 L193.51,707.77 L167.92,722.55 L142.33,707.77 L142.33,678.23Z" fill="#D5E6FA" stroke="#FFFFFF" stroke-width="1.6" tabindex="0" role="listitem"><title>4 trips</title></path>
<path class="hex" d="M219.88,663.45 L245.48,678.23 L245.48,707.77 L219.88,722.55 L194.29,707.77 L194.29,678.23Z" fill="#BFDAFB" stroke="#FFFFFF" stroke-width="1.6" tabindex="0" role="listitem"><title>11 trips</title></path>
<path class="hex" d="M271.85,663.45 L297.44,678.23 L297.44,707.77 L271.85,722.55 L246.26,707.77 L246.26,678.23Z" fill="#C2DCFB" stroke="#FFFFFF" stroke-width="1.6" tabindex="0" role="listitem"><title>10 trips</title></path>
<path class="hex" d="M323.81,663.45 L349.40,678.23 L349.40,707.77 L323.81,722.55 L298.22,707.77 L298.22,678.23Z" fill="#CEE2FB" stroke="#FFFFFF" stroke-width="1.6" tabindex="0" role="listitem"><title>6 trips</title></path>
<path class="hex" d="M375.77,663.45 L401.36,678.23 L401.36,707.77 L375.77,722.55 L350.18,707.77 L350.18,678.23Z" fill="#C8DFFB" stroke="#FFFFFF" stroke-width="1.6" tabindex="0" role="listitem"><title>8 trips</title></path>
<path class="hex" d="M427.73,663.45 L453.32,678.23 L453.32,707.77 L427.73,722.55 L402.14,707.77 L402.14,678.23Z" fill="#D5E6FA" stroke="#FFFFFF" stroke-width="1.6" tabindex="0" role="listitem"><title>4 trips</title></path>
<path class="hex" d="M479.69,663.45 L505.28,678.23 L505.28,707.77 L479.69,722.55 L454.10,707.77 L454.10,678.23Z" fill="#CEE2FB" stroke="#FFFFFF" stroke-width="1.6" tabindex="0" role="listitem"><title>6 trips</title></path>
<path class="hex" d="M531.65,663.45 L557.24,678.23 L557.24,707.77 L531.65,722.55 L506.06,707.77 L506.06,678.23Z" fill="#D2E4FB" stroke="#FFFFFF" stroke-width="1.6" tabindex="0" role="listitem"><title>5 trips</title></path>
<path class="hex" d="M583.62,663.45 L609.21,678.23 L609.21,707.77 L583.62,722.55 L558.02,707.77 L558.02,678.23Z" fill="#D2E4FB" stroke="#FFFFFF" stroke-width="1.6" tabindex="0" role="listitem"><title>5 trips</title></path>
<path class="hex" d="M635.58,663.45 L661.17,678.23 L661.17,707.77 L635.58,722.55 L609.99,707.77 L609.99,678.23Z" fill="#D9E8FA" stroke="#FFFFFF" stroke-width="1.6" tabindex="0" role="listitem"><title>3 trips</title></path>
<path class="hex" d="M687.54,663.45 L713.13,678.23 L713.13,707.77 L687.54,722.55 L661.95,707.77 L661.95,678.23Z" fill="#DDEAFA" stroke="#FFFFFF" stroke-width="1.6" tabindex="0" role="listitem"><title>2 trips</title></path>
<path class="hex" d="M739.50,663.45 L765.09,678.23 L765.09,707.77 L739.50,722.55 L713.91,707.77 L713.91,678.23Z" fill="#DDEAFA" stroke="#FFFFFF" stroke-width="1.6" tabindex="0" role="listitem"><title>2 trips</title></path>
<path class="hex" d="M245.87,708.45 L271.46,723.23 L271.46,752.77 L245.87,767.55 L220.27,752.77 L220.27,723.23Z" fill="#E2ECFA" stroke="#FFFFFF" stroke-width="1.6" tabindex="0" role="listitem"><title>1 trip</title></path>
<path class="hex" d="M297.83,708.45 L323.42,723.23 L323.42,752.77 L297.83,767.55 L272.24,752.77 L272.24,723.23Z" fill="#CBE0FB" stroke="#FFFFFF" stroke-width="1.6" tabindex="0" role="listitem"><title>7 trips</title></path>
<path class="hex" d="M349.79,708.45 L375.38,723.23 L375.38,752.77 L349.79,767.55 L324.20,752.77 L324.20,723.23Z" fill="#D5E6FA" stroke="#FFFFFF" stroke-width="1.6" tabindex="0" role="listitem"><title>4 trips</title></path>
<path class="hex" d="M401.75,708.45 L427.34,723.23 L427.34,752.77 L401.75,767.55 L376.16,752.77 L376.16,723.23Z" fill="#DDEAFA" stroke="#FFFFFF" stroke-width="1.6" tabindex="0" role="listitem"><title>2 trips</title></path>
<path class="hex" d="M453.71,708.45 L479.30,723.23 L479.30,752.77 L453.71,767.55 L428.12,752.77 L428.12,723.23Z" fill="#DDEAFA" stroke="#FFFFFF" stroke-width="1.6" tabindex="0" role="listitem"><title>2 trips</title></path>
<path class="hex" d="M505.67,708.45 L531.26,723.23 L531.26,752.77 L505.67,767.55 L480.08,752.77 L480.08,723.23Z" fill="#DDEAFA" stroke="#FFFFFF" stroke-width="1.6" tabindex="0" role="listitem"><title>2 trips</title></path>
<path class="hex" d="M661.56,708.45 L687.15,723.23 L687.15,752.77 L661.56,767.55 L635.97,752.77 L635.97,723.23Z" fill="#E9ECF1" stroke="#FFFFFF" stroke-width="1.6" tabindex="0" role="listitem"><title>no trips</title></path>
<path class="hex" d="M713.52,708.45 L739.11,723.23 L739.11,752.77 L713.52,767.55 L687.93,752.77 L687.93,723.23Z" fill="#E2ECFA" stroke="#FFFFFF" stroke-width="1.6" tabindex="0" role="listitem"><title>1 trip</title></path>
<path class="hex" d="M271.85,753.45 L297.44,768.23 L297.44,797.77 L271.85,812.55 L246.26,797.77 L246.26,768.23Z" fill="#E2ECFA" stroke="#FFFFFF" stroke-width="1.6" tabindex="0" role="listitem"><title>1 trip</title></path>
<path class="hex" d="M323.81,753.45 L349.40,768.23 L349.40,797.77 L323.81,812.55 L298.22,797.77 L298.22,768.23Z" fill="#E9ECF1" stroke="#FFFFFF" stroke-width="1.6" tabindex="0" role="listitem"><title>no trips</title></path>
<path class="hex" d="M375.77,753.45 L401.36,768.23 L401.36,797.77 L375.77,812.55 L350.18,797.77 L350.18,768.23Z" fill="#E2ECFA" stroke="#FFFFFF" stroke-width="1.6" tabindex="0" role="listitem"><title>1 trip</title></path>
<path class="hex" d="M427.73,753.45 L453.32,768.23 L453.32,797.77 L427.73,812.55 L402.14,797.77 L402.14,768.23Z" fill="#E9ECF1" stroke="#FFFFFF" stroke-width="1.6" tabindex="0" role="listitem"><title>no trips</title></path>
<path class="hex" d="M479.69,753.45 L505.28,768.23 L505.28,797.77 L479.69,812.55 L454.10,797.77 L454.10,768.23Z" fill="#E9ECF1" stroke="#FFFFFF" stroke-width="1.6" tabindex="0" role="listitem"><title>no trips</title></path>
</g>
<g transform="translate(992.0,268.0)">
<text x="0" y="-24" font-size="20" font-weight="700" fill="#1D1D1F">Trips per hex</text>
<rect class="legend-swatch" x="0" y="0.0" width="36.0" height="34.0" fill="#007AFF"/>
<rect class="legend-swatch" x="0" y="34.0" width="36.0" height="34.0" fill="#1986FE"/>
<rect class="legend-swatch" x="0" y="68.0" width="36.0" height="34.0" fill="#3293FE"/>
<rect class="legend-swatch" x="0" y="102.0" width="36.0" height="34.0" fill="#4EA1FD"/>
<rect class="legend-swatch" x="0" y="136.0" width="36.0" height="34.0" fill="#6BB0FD"/>
<rect class="legend-swatch" x="0" y="170.0" width="36.0" height="34.0" fill="#8BC0FC"/>
<rect class="legend-swatch" x="0" y="204.0" width="36.0" height="34.0" fill="#B0D3FB"/>
<rect class="legend-swatch" x="0" y="238.0" width="36.0" height="34.0" fill="#EAF0FA"/>
<text x="50.0" y="12" font-size="18" fill="#1D1D1F" font-family="Roboto Mono, monospace">116</text>
<text x="50.0" y="272.0" font-size="18" fill="#6E6E73" font-family="Roboto Mono, monospace" dominant-baseline="ideographic">1</text>
<rect class="legend-swatch" x="0" y="302.0" width="36.0" height="34.0" fill="#E9ECF1"/>
<text x="50.0" y="324.4" font-size="17" fill="#6E6E73">no trips</text>
<text x="0" y="420.0" font-size="54" font-weight="700" fill="#007AFF">39%</text>
<text x="0" y="454.0" font-size="17.5" fill="#6E6E73">of trips start in the</text>
<text x="0" y="476.0" font-size="17.5" fill="#6E6E73">busiest 10% of hexes</text>
</g>
<g data-fs-internal="" role="button" tabindex="0" aria-label="Toggle fullscreen" transform="translate(1232,14)" style="display:none;cursor:pointer"><rect x="0" y="0" width="34" height="34" rx="8" fill="#F2F3F5"/><path d="M6 13 V6 h7 M28 13 V6 h-7 M6 21 v7 h7 M28 21 v7 h-7" fill="none" stroke="#1D1D1F" stroke-width="2" stroke-linecap="round"/></g><script><![CDATA[(function(){var me=document.currentScript,svg=me.ownerSVGElement||me.parentNode;if(svg.closest&&svg.closest('[data-fs-target]'))return;var btn=svg.querySelector('[data-fs-internal]');var req=svg.requestFullscreen||svg.webkitRequestFullscreen;if(!btn||!req)return;btn.style.display='';function t(){var f=document.fullscreenElement||document.webkitFullscreenElement;if(f===svg)(document.exitFullscreen||document.webkitExitFullscreen).call(document);else req.call(svg);}btn.addEventListener('click',t);btn.addEventListener('keydown',function(e){if(e.key==='Enter'||e.key===' '){e.preventDefault();t();}});})();]]></script>
</svg>