<svg xmlns="http://www.w3.org/2000/svg" width="1400" height="1200" viewBox="0 0 1400 1200" font-family="Roboto, system-ui, sans-serif" role="img" aria-labelledby="rt-title rt-desc"><title id="rt-title">The Data Platform API, from the core outward</title><desc id="rt-desc">Radial tree of a data-platform public API laid out from the centre outward. The root, Data Platform API, sits at the middle and splits into four pillars on the first ring: Ingestion, Transform, Serve, and Govern. Ingestion is the widest branch, reaching connectors such as change data capture, file and object stores, and event streams, plus a schema registry. Each pillar is tinted its own color, and links curve along the arc between rings.</desc><style>#base .link,#base .node{transition:opacity .16s ease}#lineages .lin{opacity:0;transition:opacity .16s ease}#tree:hover #base .link{opacity:.15}#tree:hover #base .node{opacity:.28}.lin:hover,.lin:focus-within{opacity:1}.hit:focus{outline:none}
@media (prefers-contrast: more){
  .rt-lk-ingest{stroke:#004CCE;}
  .rt-lk-transform{stroke:#993600;}
  .rt-lk-serve{stroke:#831FAF;}
  .rt-lk-govern{stroke:#006700;}
}
@media (prefers-contrast: more){
  .rt-nd-ingest{fill:#004CCE;}
  .rt-nd-transform{fill:#993600;}
  .rt-nd-serve{fill:#831FAF;}
  .rt-nd-govern{fill:#006700;}
}
@media (forced-colors: active){
  .rt-nd-ingest{fill:url(#rt-fcp-0);forced-color-adjust:none;}
  .rt-nd-transform{fill:url(#rt-fcp-1);forced-color-adjust:none;}
  .rt-nd-serve{fill:url(#rt-fcp-2);forced-color-adjust:none;}
  .rt-nd-govern{fill:url(#rt-fcp-3);forced-color-adjust:none;}
}
@media (prefers-color-scheme: dark){
  [fill="#FFFFFF"]{fill:#0B0B0C;}
  [fill="#1D1D1F"]{fill:#F2F2F7;}
  [fill="#6E6E73"]{fill:#9C9CA3;}
  [style*="multiply"]{mix-blend-mode:screen;}
  [stroke="#E5E5EA"]{stroke:#2C2C2E;}
}
</style><defs><pattern id="rt-fcp-0" width="8" height="8" patternUnits="userSpaceOnUse"><rect width="8" height="8" fill="Canvas"/><path d="M0,8L8,0" stroke="CanvasText" stroke-width="1.6"/></pattern><pattern id="rt-fcp-1" width="8" height="8" patternUnits="userSpaceOnUse"><rect width="8" height="8" fill="Canvas"/><path d="M0,0L8,8" stroke="CanvasText" stroke-width="1.6"/></pattern><pattern id="rt-fcp-2" width="8" height="8" patternUnits="userSpaceOnUse"><rect width="8" height="8" fill="Canvas"/><path d="M0,4L8,4" stroke="CanvasText" stroke-width="1.6"/></pattern><pattern id="rt-fcp-3" width="8" height="8" patternUnits="userSpaceOnUse"><rect width="8" height="8" fill="Canvas"/><path d="M4,0L4,8" stroke="CanvasText" stroke-width="1.6"/></pattern></defs><rect width="1400" height="1200" fill="#FFFFFF"/><text x="40" y="54" font-size="30" font-weight="700" fill="#1D1D1F">The Data Platform API, from the core outward</text><text x="40" y="88" font-size="19" fill="#6E6E73">Four product pillars branch from one core; Ingestion carries the widest surface. Illustrative capability</text><text x="40" y="114" font-size="19" fill="#6E6E73">map.</text><g id="rings"><circle cx="700.0" cy="660.0" r="232.0" fill="none" stroke="#E5E5EA" stroke-width="1.25"/><circle cx="700.0" cy="660.0" r="372.0" fill="none" stroke="#E5E5EA" stroke-width="1.25"/><circle cx="700.0" cy="660.0" r="486.0" fill="none" stroke="#E5E5EA" stroke-width="1.25"/><text x="709.0" y="883.0" font-size="13" font-weight="600" letter-spacing="0.8" fill="#6E6E73">PILLAR</text><text x="709.0" y="1023.0" font-size="13" font-weight="600" letter-spacing="0.8" fill="#6E6E73">AREA</text><text x="709.0" y="1137.0" font-size="13" font-weight="600" letter-spacing="0.8" fill="#6E6E73">FEATURE</text><text x="709.0" y="720.0" font-size="13" font-weight="600" letter-spacing="0.8" fill="#6E6E73">CORE</text></g><g id="tree"><g id="base"><path class="link rt-lk-ingest" d="M700.0,660.0 C753.6,557.1 584.0,663.4 468.1,666.7" fill="none" stroke="#007AFF" stroke-width="4.5" stroke-linecap="round"/><path class="link rt-lk-ingest" d="M468.1,666.7 C398.1,668.8 463.1,847.3 408.2,890.7" fill="none" stroke="#007AFF" stroke-width="3.0" stroke-linecap="round"/><path class="link rt-lk-ingest" d="M408.2,890.7 C363.5,926.1 589.0,1074.4 574.2,1129.4" fill="none" stroke="#007AFF" stroke-width="3.0" stroke-linecap="round"/><path class="link rt-lk-ingest" d="M408.2,890.7 C363.5,926.1 363.5,926.1 318.8,961.4" fill="none" stroke="#007AFF" stroke-width="3.0" stroke-linecap="round"/><path class="link rt-lk-ingest" d="M408.2,890.7 C363.5,926.1 271.2,672.5 214.2,674.1" fill="none" stroke="#007AFF" stroke-width="3.0" stroke-linecap="round"/><path class="link rt-lk-ingest" d="M468.1,666.7 C398.1,668.8 452.6,486.8 395.3,446.6" fill="none" stroke="#007AFF" stroke-width="3.0" stroke-linecap="round"/><path class="link rt-lk-ingest" d="M395.3,446.6 C348.6,413.9 348.6,413.9 301.9,381.2" fill="none" stroke="#007AFF" stroke-width="3.0" stroke-linecap="round"/><path class="link rt-lk-transform" d="M700.0,660.0 C753.6,557.1 700.0,544.0 700.0,428.0" fill="none" stroke="#FF9500" stroke-width="4.5" stroke-linecap="round"/><path class="link rt-lk-transform" d="M700.0,428.0 C700.0,358.0 605.0,373.3 583.0,306.9" fill="none" stroke="#FF9500" stroke-width="3.0" stroke-linecap="round"/><path class="link rt-lk-transform" d="M700.0,428.0 C700.0,358.0 795.0,373.3 817.0,306.9" fill="none" stroke="#FF9500" stroke-width="3.0" stroke-linecap="round"/><path class="link rt-lk-serve" d="M700.0,660.0 C753.6,557.1 811.1,626.7 922.3,593.5" fill="none" stroke="#AF52DE" stroke-width="4.5" stroke-linecap="round"/><path class="link rt-lk-serve" d="M922.3,593.5 C989.3,573.4 947.4,486.8 1004.7,446.6" fill="none" stroke="#AF52DE" stroke-width="3.0" stroke-linecap="round"/><path class="link rt-lk-serve" d="M922.3,593.5 C989.3,573.4 1001.9,668.8 1071.8,670.8" fill="none" stroke="#AF52DE" stroke-width="3.0" stroke-linecap="round"/><path class="link rt-lk-govern" d="M700.0,660.0 C753.6,557.1 763.7,756.9 827.5,853.8" fill="none" stroke="#28CD41" stroke-width="4.5" stroke-linecap="round"/><path class="link rt-lk-govern" d="M827.5,853.8 C866.0,912.3 936.9,847.3 991.8,890.7" fill="none" stroke="#28CD41" stroke-width="3.0" stroke-linecap="round"/><path class="link rt-lk-govern" d="M827.5,853.8 C866.0,912.3 778.2,951.7 796.3,1019.3" fill="none" stroke="#28CD41" stroke-width="3.0" stroke-linecap="round"/><g class="node"><rect class="hit" x="601.1" y="640.0" width="197.8" height="40.0" rx="20.0" fill="#1D1D1F"><title>Data Platform API</title></rect><text x="700.0" y="660.0" text-anchor="middle" dominant-baseline="central" font-size="17.0" font-weight="700" fill="#FFFFFF">Data Platform API</text></g><g class="node"><rect class="hit rt-nd-ingest" x="412.8" y="648.7" width="110.6" height="36.0" rx="18.0" fill="#007AFF"><title>Ingestion</title></rect><text x="468.1" y="666.7" text-anchor="middle" dominant-baseline="central" font-size="16.0" font-weight="700" fill="#FFFFFF">Ingestion</text></g><g class="node"><line x1="401.1" y1="896.3" x2="396.2" y2="890.7" stroke="#C7C7CC" stroke-width="1"/><circle class="hit rt-nd-ingest" cx="408.2" cy="890.7" r="7.0" fill="#007AFF"><title>Connectors</title></circle><text x="392.2" y="890.7" text-anchor="end" dominant-baseline="central" font-size="15.5" fill="#1D1D1F">Connectors</text></g><g class="node"><line x1="572.3" y1="1136.7" x2="562.2" y2="1129.4" stroke="#C7C7CC" stroke-width="1"/><circle class="hit rt-nd-ingest" cx="574.2" cy="1129.4" r="5.5" fill="#007AFF"><title>Change data capture</title></circle><text x="558.2" y="1129.4" text-anchor="end" dominant-baseline="central" font-size="15.5" fill="#1D1D1F">Change data capture</text></g><g class="node"><line x1="312.9" y1="966.1" x2="306.8" y2="961.4" stroke="#C7C7CC" stroke-width="1"/><circle class="hit rt-nd-ingest" cx="318.8" cy="961.4" r="5.5" fill="#007AFF"><title>File &amp; object stores</title></circle><text x="302.8" y="961.4" text-anchor="end" dominant-baseline="central" font-size="15.5" fill="#1D1D1F">File &amp; object stores</text></g><g class="node"><line x1="206.7" y1="674.4" x2="202.2" y2="674.1" stroke="#C7C7CC" stroke-width="1"/><circle class="hit rt-nd-ingest" cx="214.2" cy="674.1" r="5.5" fill="#007AFF"><title>Event streams</title></circle><text x="198.2" y="674.1" text-anchor="end" dominant-baseline="central" font-size="15.5" fill="#1D1D1F">Event streams</text></g><g class="node"><line x1="387.9" y1="441.5" x2="383.3" y2="446.6" stroke="#C7C7CC" stroke-width="1"/><circle class="hit rt-nd-ingest" cx="395.3" cy="446.6" r="7.0" fill="#007AFF"><title>Schema registry</title></circle><text x="379.3" y="446.6" text-anchor="end" dominant-baseline="central" font-size="15.5" fill="#1D1D1F">Schema registry</text></g><g class="node"><line x1="295.7" y1="376.9" x2="289.9" y2="381.2" stroke="#C7C7CC" stroke-width="1"/><circle class="hit rt-nd-ingest" cx="301.9" cy="381.2" r="5.5" fill="#007AFF"><title>Validation rules</title></circle><text x="285.9" y="381.2" text-anchor="end" dominant-baseline="central" font-size="15.5" fill="#1D1D1F">Validation rules</text></g><g class="node"><rect class="hit rt-nd-transform" x="644.7" y="410.0" width="110.6" height="36.0" rx="18.0" fill="#FF9500"><title>Transform</title></rect><text x="700.0" y="428.0" text-anchor="middle" dominant-baseline="central" font-size="16.0" font-weight="700" fill="#FFFFFF">Transform</text></g><g class="node"><line x1="580.6" y1="299.8" x2="571.0" y2="306.9" stroke="#C7C7CC" stroke-width="1"/><circle class="hit rt-nd-transform" cx="583.0" cy="306.9" r="5.5" fill="#FF9500"><title>SQL models</title></circle><text x="567.0" y="306.9" text-anchor="end" dominant-baseline="central" font-size="15.5" fill="#1D1D1F">SQL models</text></g><g class="node"><line x1="819.4" y1="299.8" x2="829.0" y2="306.9" stroke="#C7C7CC" stroke-width="1"/><circle class="hit rt-nd-transform" cx="817.0" cy="306.9" r="5.5" fill="#FF9500"><title>Python jobs</title></circle><text x="833.0" y="306.9" text-anchor="start" dominant-baseline="central" font-size="15.5" fill="#1D1D1F">Python jobs</text></g><g class="node"><rect class="hit rt-nd-serve" x="884.9" y="575.5" width="74.8" height="36.0" rx="18.0" fill="#AF52DE"><title>Serve</title></rect><text x="922.3" y="593.5" text-anchor="middle" dominant-baseline="central" font-size="16.0" font-weight="700" fill="#FFFFFF">Serve</text></g><g class="node"><line x1="1010.9" y1="442.3" x2="1016.7" y2="446.6" stroke="#C7C7CC" stroke-width="1"/><circle class="hit rt-nd-serve" cx="1004.7" cy="446.6" r="5.5" fill="#AF52DE"><title>Query engine</title></circle><text x="1020.7" y="446.6" text-anchor="start" dominant-baseline="central" font-size="15.5" fill="#1D1D1F">Query engine</text></g><g class="node"><line x1="1079.3" y1="671.0" x2="1083.8" y2="670.8" stroke="#C7C7CC" stroke-width="1"/><circle class="hit rt-nd-serve" cx="1071.8" cy="670.8" r="5.5" fill="#AF52DE"><title>Result cache</title></circle><text x="1087.8" y="670.8" text-anchor="start" dominant-baseline="central" font-size="15.5" fill="#1D1D1F">Result cache</text></g><g class="node"><rect class="hit rt-nd-govern" x="785.6" y="835.8" width="83.8" height="36.0" rx="18.0" fill="#28CD41"><title>Govern</title></rect><text x="827.5" y="853.8" text-anchor="middle" dominant-baseline="central" font-size="16.0" font-weight="700" fill="#FFFFFF">Govern</text></g><g class="node"><line x1="997.7" y1="895.4" x2="1003.8" y2="890.7" stroke="#C7C7CC" stroke-width="1"/><circle class="hit rt-nd-govern" cx="991.8" cy="890.7" r="5.5" fill="#28CD41"><title>Lineage graph</title></circle><text x="1007.8" y="890.7" text-anchor="start" dominant-baseline="central" font-size="15.5" fill="#1D1D1F">Lineage graph</text></g><g class="node"><line x1="798.2" y1="1026.6" x2="808.3" y2="1019.3" stroke="#C7C7CC" stroke-width="1"/><circle class="hit rt-nd-govern" cx="796.3" cy="1019.3" r="5.5" fill="#28CD41"><title>Access policies</title></circle><text x="812.3" y="1019.3" text-anchor="start" dominant-baseline="central" font-size="15.5" fill="#1D1D1F">Access policies</text></g></g><g id="lineages"><g class="lin" tabindex="0" role="img" aria-label="Data Platform API › Ingestion › Connectors › Change data capture"><title>Data Platform API › Ingestion › Connectors › Change data capture</title><path class="link rt-lk-ingest" d="M700.0,660.0 C753.6,557.1 584.0,663.4 468.1,666.7" fill="none" stroke="#007AFF" stroke-width="4.5" stroke-linecap="round"/><path class="link rt-lk-ingest" d="M468.1,666.7 C398.1,668.8 463.1,847.3 408.2,890.7" fill="none" stroke="#007AFF" stroke-width="3.0" stroke-linecap="round"/><path class="link rt-lk-ingest" d="M408.2,890.7 C363.5,926.1 589.0,1074.4 574.2,1129.4" fill="none" stroke="#007AFF" stroke-width="3.0" stroke-linecap="round"/><g class="node"><rect class="hit" tabindex="0" x="601.1" y="640.0" width="197.8" height="40.0" rx="20.0" fill="#1D1D1F"><title>Data Platform API</title></rect><text x="700.0" y="660.0" text-anchor="middle" dominant-baseline="central" font-size="17.0" font-weight="700" fill="#FFFFFF">Data Platform API</text></g><g class="node"><rect class="hit rt-nd-ingest" tabindex="0" x="412.8" y="648.7" width="110.6" height="36.0" rx="18.0" fill="#007AFF"><title>Ingestion</title></rect><text x="468.1" y="666.7" text-anchor="middle" dominant-baseline="central" font-size="16.0" font-weight="700" fill="#FFFFFF">Ingestion</text></g><g class="node"><line x1="401.1" y1="896.3" x2="396.2" y2="890.7" stroke="#C7C7CC" stroke-width="1"/><circle class="hit rt-nd-ingest" tabindex="0" cx="408.2" cy="890.7" r="7.0" fill="#007AFF"><title>Connectors</title></circle><text x="392.2" y="890.7" text-anchor="end" dominant-baseline="central" font-size="15.5" fill="#1D1D1F">Connectors</text></g><g class="node"><line x1="572.3" y1="1136.7" x2="562.2" y2="1129.4" stroke="#C7C7CC" stroke-width="1"/><circle class="hit rt-nd-ingest" cx="574.2" cy="1129.4" r="5.5" fill="#007AFF"><title>Change data capture</title></circle><text x="558.2" y="1129.4" text-anchor="end" dominant-baseline="central" font-size="15.5" fill="#1D1D1F">Change data capture</text></g></g><g class="lin" tabindex="0" role="img" aria-label="Data Platform API › Ingestion › Connectors › File &amp; object stores"><title>Data Platform API › Ingestion › Connectors › File &amp; object stores</title><path class="link rt-lk-ingest" d="M700.0,660.0 C753.6,557.1 584.0,663.4 468.1,666.7" fill="none" stroke="#007AFF" stroke-width="4.5" stroke-linecap="round"/><path class="link rt-lk-ingest" d="M468.1,666.7 C398.1,668.8 463.1,847.3 408.2,890.7" fill="none" stroke="#007AFF" stroke-width="3.0" stroke-linecap="round"/><path class="link rt-lk-ingest" d="M408.2,890.7 C363.5,926.1 363.5,926.1 318.8,961.4" fill="none" stroke="#007AFF" stroke-width="3.0" stroke-linecap="round"/><g class="node"><rect class="hit" tabindex="0" x="601.1" y="640.0" width="197.8" height="40.0" rx="20.0" fill="#1D1D1F"><title>Data Platform API</title></rect><text x="700.0" y="660.0" text-anchor="middle" dominant-baseline="central" font-size="17.0" font-weight="700" fill="#FFFFFF">Data Platform API</text></g><g class="node"><rect class="hit rt-nd-ingest" tabindex="0" x="412.8" y="648.7" width="110.6" height="36.0" rx="18.0" fill="#007AFF"><title>Ingestion</title></rect><text x="468.1" y="666.7" text-anchor="middle" dominant-baseline="central" font-size="16.0" font-weight="700" fill="#FFFFFF">Ingestion</text></g><g class="node"><line x1="401.1" y1="896.3" x2="396.2" y2="890.7" stroke="#C7C7CC" stroke-width="1"/><circle class="hit rt-nd-ingest" tabindex="0" cx="408.2" cy="890.7" r="7.0" fill="#007AFF"><title>Connectors</title></circle><text x="392.2" y="890.7" text-anchor="end" dominant-baseline="central" font-size="15.5" fill="#1D1D1F">Connectors</text></g><g class="node"><line x1="312.9" y1="966.1" x2="306.8" y2="961.4" stroke="#C7C7CC" stroke-width="1"/><circle class="hit rt-nd-ingest" cx="318.8" cy="961.4" r="5.5" fill="#007AFF"><title>File &amp; object stores</title></circle><text x="302.8" y="961.4" text-anchor="end" dominant-baseline="central" font-size="15.5" fill="#1D1D1F">File &amp; object stores</text></g></g><g class="lin" tabindex="0" role="img" aria-label="Data Platform API › Ingestion › Connectors › Event streams"><title>Data Platform API › Ingestion › Connectors › Event streams</title><path class="link rt-lk-ingest" d="M700.0,660.0 C753.6,557.1 584.0,663.4 468.1,666.7" fill="none" stroke="#007AFF" stroke-width="4.5" stroke-linecap="round"/><path class="link rt-lk-ingest" d="M468.1,666.7 C398.1,668.8 463.1,847.3 408.2,890.7" fill="none" stroke="#007AFF" stroke-width="3.0" stroke-linecap="round"/><path class="link rt-lk-ingest" d="M408.2,890.7 C363.5,926.1 271.2,672.5 214.2,674.1" fill="none" stroke="#007AFF" stroke-width="3.0" stroke-linecap="round"/><g class="node"><rect class="hit" tabindex="0" x="601.1" y="640.0" width="197.8" height="40.0" rx="20.0" fill="#1D1D1F"><title>Data Platform API</title></rect><text x="700.0" y="660.0" text-anchor="middle" dominant-baseline="central" font-size="17.0" font-weight="700" fill="#FFFFFF">Data Platform API</text></g><g class="node"><rect class="hit rt-nd-ingest" tabindex="0" x="412.8" y="648.7" width="110.6" height="36.0" rx="18.0" fill="#007AFF"><title>Ingestion</title></rect><text x="468.1" y="666.7" text-anchor="middle" dominant-baseline="central" font-size="16.0" font-weight="700" fill="#FFFFFF">Ingestion</text></g><g class="node"><line x1="401.1" y1="896.3" x2="396.2" y2="890.7" stroke="#C7C7CC" stroke-width="1"/><circle class="hit rt-nd-ingest" tabindex="0" cx="408.2" cy="890.7" r="7.0" fill="#007AFF"><title>Connectors</title></circle><text x="392.2" y="890.7" text-anchor="end" dominant-baseline="central" font-size="15.5" fill="#1D1D1F">Connectors</text></g><g class="node"><line x1="206.7" y1="674.4" x2="202.2" y2="674.1" stroke="#C7C7CC" stroke-width="1"/><circle class="hit rt-nd-ingest" cx="214.2" cy="674.1" r="5.5" fill="#007AFF"><title>Event streams</title></circle><text x="198.2" y="674.1" text-anchor="end" dominant-baseline="central" font-size="15.5" fill="#1D1D1F">Event streams</text></g></g><g class="lin" tabindex="0" role="img" aria-label="Data Platform API › Ingestion › Schema registry › Validation rules"><title>Data Platform API › Ingestion › Schema registry › Validation rules</title><path class="link rt-lk-ingest" d="M700.0,660.0 C753.6,557.1 584.0,663.4 468.1,666.7" fill="none" stroke="#007AFF" stroke-width="4.5" stroke-linecap="round"/><path class="link rt-lk-ingest" d="M468.1,666.7 C398.1,668.8 452.6,486.8 395.3,446.6" fill="none" stroke="#007AFF" stroke-width="3.0" stroke-linecap="round"/><path class="link rt-lk-ingest" d="M395.3,446.6 C348.6,413.9 348.6,413.9 301.9,381.2" fill="none" stroke="#007AFF" stroke-width="3.0" stroke-linecap="round"/><g class="node"><rect class="hit" tabindex="0" x="601.1" y="640.0" width="197.8" height="40.0" rx="20.0" fill="#1D1D1F"><title>Data Platform API</title></rect><text x="700.0" y="660.0" text-anchor="middle" dominant-baseline="central" font-size="17.0" font-weight="700" fill="#FFFFFF">Data Platform API</text></g><g class="node"><rect class="hit rt-nd-ingest" tabindex="0" x="412.8" y="648.7" width="110.6" height="36.0" rx="18.0" fill="#007AFF"><title>Ingestion</title></rect><text x="468.1" y="666.7" text-anchor="middle" dominant-baseline="central" font-size="16.0" font-weight="700" fill="#FFFFFF">Ingestion</text></g><g class="node"><line x1="387.9" y1="441.5" x2="383.3" y2="446.6" stroke="#C7C7CC" stroke-width="1"/><circle class="hit rt-nd-ingest" tabindex="0" cx="395.3" cy="446.6" r="7.0" fill="#007AFF"><title>Schema registry</title></circle><text x="379.3" y="446.6" text-anchor="end" dominant-baseline="central" font-size="15.5" fill="#1D1D1F">Schema registry</text></g><g class="node"><line x1="295.7" y1="376.9" x2="289.9" y2="381.2" stroke="#C7C7CC" stroke-width="1"/><circle class="hit rt-nd-ingest" cx="301.9" cy="381.2" r="5.5" fill="#007AFF"><title>Validation rules</title></circle><text x="285.9" y="381.2" text-anchor="end" dominant-baseline="central" font-size="15.5" fill="#1D1D1F">Validation rules</text></g></g><g class="lin" tabindex="0" role="img" aria-label="Data Platform API › Transform › SQL models"><title>Data Platform API › Transform › SQL models</title><path class="link rt-lk-transform" d="M700.0,660.0 C753.6,557.1 700.0,544.0 700.0,428.0" fill="none" stroke="#FF9500" stroke-width="4.5" stroke-linecap="round"/><path class="link rt-lk-transform" d="M700.0,428.0 C700.0,358.0 605.0,373.3 583.0,306.9" fill="none" stroke="#FF9500" stroke-width="3.0" stroke-linecap="round"/><g class="node"><rect class="hit" tabindex="0" x="601.1" y="640.0" width="197.8" height="40.0" rx="20.0" fill="#1D1D1F"><title>Data Platform API</title></rect><text x="700.0" y="660.0" text-anchor="middle" dominant-baseline="central" font-size="17.0" font-weight="700" fill="#FFFFFF">Data Platform API</text></g><g class="node"><rect class="hit rt-nd-transform" tabindex="0" x="644.7" y="410.0" width="110.6" height="36.0" rx="18.0" fill="#FF9500"><title>Transform</title></rect><text x="700.0" y="428.0" text-anchor="middle" dominant-baseline="central" font-size="16.0" font-weight="700" fill="#FFFFFF">Transform</text></g><g class="node"><line x1="580.6" y1="299.8" x2="571.0" y2="306.9" stroke="#C7C7CC" stroke-width="1"/><circle class="hit rt-nd-transform" cx="583.0" cy="306.9" r="5.5" fill="#FF9500"><title>SQL models</title></circle><text x="567.0" y="306.9" text-anchor="end" dominant-baseline="central" font-size="15.5" fill="#1D1D1F">SQL models</text></g></g><g class="lin" tabindex="0" role="img" aria-label="Data Platform API › Transform › Python jobs"><title>Data Platform API › Transform › Python jobs</title><path class="link rt-lk-transform" d="M700.0,660.0 C753.6,557.1 700.0,544.0 700.0,428.0" fill="none" stroke="#FF9500" stroke-width="4.5" stroke-linecap="round"/><path class="link rt-lk-transform" d="M700.0,428.0 C700.0,358.0 795.0,373.3 817.0,306.9" fill="none" stroke="#FF9500" stroke-width="3.0" stroke-linecap="round"/><g class="node"><rect class="hit" tabindex="0" x="601.1" y="640.0" width="197.8" height="40.0" rx="20.0" fill="#1D1D1F"><title>Data Platform API</title></rect><text x="700.0" y="660.0" text-anchor="middle" dominant-baseline="central" font-size="17.0" font-weight="700" fill="#FFFFFF">Data Platform API</text></g><g class="node"><rect class="hit rt-nd-transform" tabindex="0" x="644.7" y="410.0" width="110.6" height="36.0" rx="18.0" fill="#FF9500"><title>Transform</title></rect><text x="700.0" y="428.0" text-anchor="middle" dominant-baseline="central" font-size="16.0" font-weight="700" fill="#FFFFFF">Transform</text></g><g class="node"><line x1="819.4" y1="299.8" x2="829.0" y2="306.9" stroke="#C7C7CC" stroke-width="1"/><circle class="hit rt-nd-transform" cx="817.0" cy="306.9" r="5.5" fill="#FF9500"><title>Python jobs</title></circle><text x="833.0" y="306.9" text-anchor="start" dominant-baseline="central" font-size="15.5" fill="#1D1D1F">Python jobs</text></g></g><g class="lin" tabindex="0" role="img" aria-label="Data Platform API › Serve › Query engine"><title>Data Platform API › Serve › Query engine</title><path class="link rt-lk-serve" d="M700.0,660.0 C753.6,557.1 811.1,626.7 922.3,593.5" fill="none" stroke="#AF52DE" stroke-width="4.5" stroke-linecap="round"/><path class="link rt-lk-serve" d="M922.3,593.5 C989.3,573.4 947.4,486.8 1004.7,446.6" fill="none" stroke="#AF52DE" stroke-width="3.0" stroke-linecap="round"/><g class="node"><rect class="hit" tabindex="0" x="601.1" y="640.0" width="197.8" height="40.0" rx="20.0" fill="#1D1D1F"><title>Data Platform API</title></rect><text x="700.0" y="660.0" text-anchor="middle" dominant-baseline="central" font-size="17.0" font-weight="700" fill="#FFFFFF">Data Platform API</text></g><g class="node"><rect class="hit rt-nd-serve" tabindex="0" x="884.9" y="575.5" width="74.8" height="36.0" rx="18.0" fill="#AF52DE"><title>Serve</title></rect><text x="922.3" y="593.5" text-anchor="middle" dominant-baseline="central" font-size="16.0" font-weight="700" fill="#FFFFFF">Serve</text></g><g class="node"><line x1="1010.9" y1="442.3" x2="1016.7" y2="446.6" stroke="#C7C7CC" stroke-width="1"/><circle class="hit rt-nd-serve" cx="1004.7" cy="446.6" r="5.5" fill="#AF52DE"><title>Query engine</title></circle><text x="1020.7" y="446.6" text-anchor="start" dominant-baseline="central" font-size="15.5" fill="#1D1D1F">Query engine</text></g></g><g class="lin" tabindex="0" role="img" aria-label="Data Platform API › Serve › Result cache"><title>Data Platform API › Serve › Result cache</title><path class="link rt-lk-serve" d="M700.0,660.0 C753.6,557.1 811.1,626.7 922.3,593.5" fill="none" stroke="#AF52DE" stroke-width="4.5" stroke-linecap="round"/><path class="link rt-lk-serve" d="M922.3,593.5 C989.3,573.4 1001.9,668.8 1071.8,670.8" fill="none" stroke="#AF52DE" stroke-width="3.0" stroke-linecap="round"/><g class="node"><rect class="hit" tabindex="0" x="601.1" y="640.0" width="197.8" height="40.0" rx="20.0" fill="#1D1D1F"><title>Data Platform API</title></rect><text x="700.0" y="660.0" text-anchor="middle" dominant-baseline="central" font-size="17.0" font-weight="700" fill="#FFFFFF">Data Platform API</text></g><g class="node"><rect class="hit rt-nd-serve" tabindex="0" x="884.9" y="575.5" width="74.8" height="36.0" rx="18.0" fill="#AF52DE"><title>Serve</title></rect><text x="922.3" y="593.5" text-anchor="middle" dominant-baseline="central" font-size="16.0" font-weight="700" fill="#FFFFFF">Serve</text></g><g class="node"><line x1="1079.3" y1="671.0" x2="1083.8" y2="670.8" stroke="#C7C7CC" stroke-width="1"/><circle class="hit rt-nd-serve" cx="1071.8" cy="670.8" r="5.5" fill="#AF52DE"><title>Result cache</title></circle><text x="1087.8" y="670.8" text-anchor="start" dominant-baseline="central" font-size="15.5" fill="#1D1D1F">Result cache</text></g></g><g class="lin" tabindex="0" role="img" aria-label="Data Platform API › Govern › Lineage graph"><title>Data Platform API › Govern › Lineage graph</title><path class="link rt-lk-govern" d="M700.0,660.0 C753.6,557.1 763.7,756.9 827.5,853.8" fill="none" stroke="#28CD41" stroke-width="4.5" stroke-linecap="round"/><path class="link rt-lk-govern" d="M827.5,853.8 C866.0,912.3 936.9,847.3 991.8,890.7" fill="none" stroke="#28CD41" stroke-width="3.0" stroke-linecap="round"/><g class="node"><rect class="hit" tabindex="0" x="601.1" y="640.0" width="197.8" height="40.0" rx="20.0" fill="#1D1D1F"><title>Data Platform API</title></rect><text x="700.0" y="660.0" text-anchor="middle" dominant-baseline="central" font-size="17.0" font-weight="700" fill="#FFFFFF">Data Platform API</text></g><g class="node"><rect class="hit rt-nd-govern" tabindex="0" x="785.6" y="835.8" width="83.8" height="36.0" rx="18.0" fill="#28CD41"><title>Govern</title></rect><text x="827.5" y="853.8" text-anchor="middle" dominant-baseline="central" font-size="16.0" font-weight="700" fill="#FFFFFF">Govern</text></g><g class="node"><line x1="997.7" y1="895.4" x2="1003.8" y2="890.7" stroke="#C7C7CC" stroke-width="1"/><circle class="hit rt-nd-govern" cx="991.8" cy="890.7" r="5.5" fill="#28CD41"><title>Lineage graph</title></circle><text x="1007.8" y="890.7" text-anchor="start" dominant-baseline="central" font-size="15.5" fill="#1D1D1F">Lineage graph</text></g></g><g class="lin" tabindex="0" role="img" aria-label="Data Platform API › Govern › Access policies"><title>Data Platform API › Govern › Access policies</title><path class="link rt-lk-govern" d="M700.0,660.0 C753.6,557.1 763.7,756.9 827.5,853.8" fill="none" stroke="#28CD41" stroke-width="4.5" stroke-linecap="round"/><path class="link rt-lk-govern" d="M827.5,853.8 C866.0,912.3 778.2,951.7 796.3,1019.3" fill="none" stroke="#28CD41" stroke-width="3.0" stroke-linecap="round"/><g class="node"><rect class="hit" tabindex="0" x="601.1" y="640.0" width="197.8" height="40.0" rx="20.0" fill="#1D1D1F"><title>Data Platform API</title></rect><text x="700.0" y="660.0" text-anchor="middle" dominant-baseline="central" font-size="17.0" font-weight="700" fill="#FFFFFF">Data Platform API</text></g><g class="node"><rect class="hit rt-nd-govern" tabindex="0" x="785.6" y="835.8" width="83.8" height="36.0" rx="18.0" fill="#28CD41"><title>Govern</title></rect><text x="827.5" y="853.8" text-anchor="middle" dominant-baseline="central" font-size="16.0" font-weight="700" fill="#FFFFFF">Govern</text></g><g class="node"><line x1="798.2" y1="1026.6" x2="808.3" y2="1019.3" stroke="#C7C7CC" stroke-width="1"/><circle class="hit rt-nd-govern" cx="796.3" cy="1019.3" r="5.5" fill="#28CD41"><title>Access policies</title></circle><text x="812.3" y="1019.3" text-anchor="start" dominant-baseline="central" font-size="15.5" fill="#1D1D1F">Access policies</text></g></g></g></g><g id="legend"><text x="40.0" y="1024.0" font-size="14" font-weight="700" letter-spacing="0.8" fill="#6E6E73">PILLARS</text><rect class="rt-nd-ingest" x="40.0" y="1037.0" width="17" height="17" rx="4.5" fill="#007AFF"/><text x="66.0" y="1050.0" font-size="16" fill="#1D1D1F">Ingestion</text><text x="190.0" y="1050.0" font-family="Roboto Mono, ui-monospace, monospace" font-size="14" fill="#6E6E73">7 nodes</text><rect class="rt-nd-transform" x="40.0" y="1068.0" width="17" height="17" rx="4.5" fill="#FF9500"/><text x="66.0" y="1081.0" font-size="16" fill="#1D1D1F">Transform</text><text x="190.0" y="1081.0" font-family="Roboto Mono, ui-monospace, monospace" font-size="14" fill="#6E6E73">3 nodes</text><rect class="rt-nd-serve" x="40.0" y="1099.0" width="17" height="17" rx="4.5" fill="#AF52DE"/><text x="66.0" y="1112.0" font-size="16" fill="#1D1D1F">Serve</text><text x="190.0" y="1112.0" font-family="Roboto Mono, ui-monospace, monospace" font-size="14" fill="#6E6E73">3 nodes</text><rect class="rt-nd-govern" x="40.0" y="1130.0" width="17" height="17" rx="4.5" fill="#28CD41"/><text x="66.0" y="1143.0" font-size="16" fill="#1D1D1F">Govern</text><text x="190.0" y="1143.0" font-family="Roboto Mono, ui-monospace, monospace" font-size="14" fill="#6E6E73">3 nodes</text></g><text x="40" y="1178" font-size="15" fill="#6E6E73">Hover or focus any node to trace its branch back to the centre</text><g data-fs-internal="" role="button" tabindex="0" aria-label="Toggle fullscreen" transform="translate(1352,14)" style="display:none;cursor:pointer"><rect x="0" y="0" width="34" height="34" rx="8" fill="#F2F3F5"/><path d="M6 13 V6 h7 M28 13 V6 h-7 M6 21 v7 h7 M28 21 v7 h-7" fill="none" stroke="#1D1D1F" stroke-width="2" stroke-linecap="round"/></g><script><![CDATA[(function(){var me=document.currentScript,svg=me.ownerSVGElement||me.parentNode;if(svg.closest&&svg.closest('[data-fs-target]'))return;var btn=svg.querySelector('[data-fs-internal]');var req=svg.requestFullscreen||svg.webkitRequestFullscreen;if(!btn||!req)return;btn.style.display='';function t(){var f=document.fullscreenElement||document.webkitFullscreenElement;if(f===svg)(document.exitFullscreen||document.webkitExitFullscreen).call(document);else req.call(svg);}btn.addEventListener('click',t);btn.addEventListener('keydown',function(e){if(e.key==='Enter'||e.key===' '){e.preventDefault();t();}});})();]]></script></svg>