<svg xmlns="http://www.w3.org/2000/svg" width="1300" height="1000" viewBox="0 0 1300 1000" font-family="Roboto, system-ui, sans-serif" role="img" aria-labelledby="tree-title tree-desc"><title id="tree-title">A machine-learning syllabus, branch by branch</title><desc id="tree-desc">Tidy node-link tree of a machine-learning course taxonomy. The root, Machine learning, splits into four families: Supervised, Unsupervised, Deep learning, and Reinforcement. Supervised is the deepest and widest branch, reaching individual algorithms such as gradient-boosted trees and Gaussian processes. Each family is tinted its own color.</desc><style>.node,.link{transition:opacity .16s ease}#tree:hover .link{opacity:.25}#tree:hover .node{opacity:.4}.lin:hover .link,.lin:hover .node,.lin:focus-within .link,.lin:focus-within .node{opacity:1}.card:focus{outline:none}@media (prefers-contrast: more){
  .link.fam-sup{stroke:#004CCE;}
  .link.fam-uns{stroke:#993600;}
  .link.fam-deep{stroke:#831FAF;}
  .link.fam-rl{stroke:#006700;}
}
@media (prefers-contrast: more){
  .fam-rule.fam-sup{fill:#004CCE;}
  .fam-rule.fam-uns{fill:#993600;}
  .fam-rule.fam-deep{fill:#831FAF;}
  .fam-rule.fam-rl{fill:#006700;}
}
@media (prefers-contrast: more){
  .pill-sup{fill:#0051BE;}
  .pill-uns{fill:#923B00;}
  .pill-deep{fill:#8121B0;}
  .pill-rl{fill:#006414;}
}@media (prefers-color-scheme: dark){
  [fill="#1D1D1F"]{fill:#F2F2F7;}
  [fill="#6E6E73"]{fill:#9C9CA3;}
  rect[fill="#FFFFFF"]{fill:#141416;} [stroke="#E5E5EA"]{stroke:#3A3A3C;} rect.card[fill="#1D1D1F"]{fill:#48484A;}
}</style><rect width="1300" height="1000" fill="#FFFFFF"/><text x="40" y="56" font-size="32" font-weight="700" fill="#1D1D1F">A machine-learning syllabus, branch by branch</text><text x="40" y="92" font-size="20" fill="#6E6E73">Supervised learning carries the deepest branch, reaching all the way down to named algorithms.</text><text x="40" y="119" font-size="20" fill="#6E6E73">That is where the course spends most weeks. Illustrative outline.</text><text x="40.0" y="146.0" font-size="15" font-weight="600" letter-spacing="1.0" fill="#6E6E73">FIELD</text><text x="345.0" y="146.0" font-size="15" font-weight="600" letter-spacing="1.0" fill="#6E6E73">FAMILY</text><text x="650.0" y="146.0" font-size="15" font-weight="600" letter-spacing="1.0" fill="#6E6E73">TASK</text><text x="955.0" y="146.0" font-size="15" font-weight="600" letter-spacing="1.0" fill="#6E6E73">METHOD</text><g id="tree"><g id="base"><path class="link fam-sup" d="M250.2,635.2 C297.6,635.2 297.6,385.5 345.0,385.5" fill="none" stroke="#007AFF" stroke-width="3" stroke-opacity="0.9" stroke-linecap="round"/><path class="link fam-sup" d="M491.4,385.5 C570.7,385.5 570.7,293.0 650.0,293.0" fill="none" stroke="#007AFF" stroke-width="3" stroke-opacity="0.9" stroke-linecap="round"/><path class="link fam-sup" d="M811.3,293.0 C883.1,293.0 883.1,219.0 955.0,219.0" fill="none" stroke="#007AFF" stroke-width="3" stroke-opacity="0.9" stroke-linecap="round"/><path class="link fam-sup" d="M811.3,293.0 C883.1,293.0 883.1,293.0 955.0,293.0" fill="none" stroke="#007AFF" stroke-width="3" stroke-opacity="0.9" stroke-linecap="round"/><path class="link fam-sup" d="M811.3,293.0 C883.1,293.0 883.1,367.0 955.0,367.0" fill="none" stroke="#007AFF" stroke-width="3" stroke-opacity="0.9" stroke-linecap="round"/><path class="link fam-sup" d="M491.4,385.5 C570.7,385.5 570.7,478.0 650.0,478.0" fill="none" stroke="#007AFF" stroke-width="3" stroke-opacity="0.9" stroke-linecap="round"/><path class="link fam-sup" d="M773.2,478.0 C864.1,478.0 864.1,441.0 955.0,441.0" fill="none" stroke="#007AFF" stroke-width="3" stroke-opacity="0.9" stroke-linecap="round"/><path class="link fam-sup" d="M773.2,478.0 C864.1,478.0 864.1,515.0 955.0,515.0" fill="none" stroke="#007AFF" stroke-width="3" stroke-opacity="0.9" stroke-linecap="round"/><path class="link fam-uns" d="M250.2,635.2 C297.6,635.2 297.6,626.0 345.0,626.0" fill="none" stroke="#FF9500" stroke-width="3" stroke-opacity="0.9" stroke-linecap="round"/><path class="link fam-uns" d="M512.7,626.0 C581.3,626.0 581.3,589.0 650.0,589.0" fill="none" stroke="#FF9500" stroke-width="3" stroke-opacity="0.9" stroke-linecap="round"/><path class="link fam-uns" d="M512.7,626.0 C581.3,626.0 581.3,663.0 650.0,663.0" fill="none" stroke="#FF9500" stroke-width="3" stroke-opacity="0.9" stroke-linecap="round"/><path class="link fam-deep" d="M250.2,635.2 C297.6,635.2 297.6,774.0 345.0,774.0" fill="none" stroke="#AF52DE" stroke-width="3" stroke-opacity="0.9" stroke-linecap="round"/><path class="link fam-deep" d="M523.3,774.0 C586.7,774.0 586.7,737.0 650.0,737.0" fill="none" stroke="#AF52DE" stroke-width="3" stroke-opacity="0.9" stroke-linecap="round"/><path class="link fam-deep" d="M523.3,774.0 C586.7,774.0 586.7,811.0 650.0,811.0" fill="none" stroke="#AF52DE" stroke-width="3" stroke-opacity="0.9" stroke-linecap="round"/><path class="link fam-rl" d="M250.2,635.2 C297.6,635.2 297.6,885.0 345.0,885.0" fill="none" stroke="#28CD41" stroke-width="3" stroke-opacity="0.9" stroke-linecap="round"/><path class="link fam-rl" d="M523.3,885.0 C586.7,885.0 586.7,885.0 650.0,885.0" fill="none" stroke="#28CD41" stroke-width="3" stroke-opacity="0.9" stroke-linecap="round"/><g class="node"><rect class="card" x="40.0" y="611.2" width="210.2" height="48.0" rx="24.0" fill="#1D1D1F"><title>Machine learning</title></rect><text x="145.1" y="635.2" text-anchor="middle" dominant-baseline="central" font-size="19" font-weight="700" fill="#FFFFFF">Machine learning</text></g><g class="node"><rect class="card pill-sup" x="345.0" y="361.5" width="146.4" height="48.0" rx="24.0" fill="#0064D2"><title>Supervised</title></rect><text x="418.2" y="385.5" text-anchor="middle" dominant-baseline="central" font-size="19" font-weight="700" fill="#FFFFFF">Supervised</text></g><g class="node"><rect x="650.0" y="269.0" width="161.3" height="48.0" rx="10" fill="#FFFFFF" stroke="#E5E5EA" stroke-width="1.5"><title>Classification</title></rect><rect class="fam-rule fam-sup" x="650.0" y="269.0" width="5.0" height="48.0" rx="2.5" fill="#007AFF"/><text x="666.0" y="293.0" dominant-baseline="central" font-size="17" font-weight="500" fill="#1D1D1F">Classification</text></g><g class="node"><rect x="955.0" y="195.0" width="208.9" height="48.0" rx="10" fill="#FFFFFF" stroke="#E5E5EA" stroke-width="1.5"><title>Logistic regression</title></rect><rect class="fam-rule fam-sup" x="955.0" y="195.0" width="5.0" height="48.0" rx="2.5" fill="#007AFF"/><text x="971.0" y="219.0" dominant-baseline="central" font-size="17" font-weight="500" fill="#1D1D1F">Logistic regression</text></g><g class="node"><rect x="955.0" y="269.0" width="247.0" height="48.0" rx="10" fill="#FFFFFF" stroke="#E5E5EA" stroke-width="1.5"><title>Support-vector machines</title></rect><rect class="fam-rule fam-sup" x="955.0" y="269.0" width="5.0" height="48.0" rx="2.5" fill="#007AFF"/><text x="971.0" y="293.0" dominant-baseline="central" font-size="17" font-weight="500" fill="#1D1D1F">Support-vector machines</text></g><g class="node"><rect x="955.0" y="343.0" width="237.4" height="48.0" rx="10" fill="#FFFFFF" stroke="#E5E5EA" stroke-width="1.5"><title>Gradient-boosted trees</title></rect><rect class="fam-rule fam-sup" x="955.0" y="343.0" width="5.0" height="48.0" rx="2.5" fill="#007AFF"/><text x="971.0" y="367.0" dominant-baseline="central" font-size="17" font-weight="500" fill="#1D1D1F">Gradient-boosted trees</text></g><g class="node"><rect x="650.0" y="454.0" width="123.2" height="48.0" rx="10" fill="#FFFFFF" stroke="#E5E5EA" stroke-width="1.5"><title>Regression</title></rect><rect class="fam-rule fam-sup" x="650.0" y="454.0" width="5.0" height="48.0" rx="2.5" fill="#007AFF"/><text x="666.0" y="478.0" dominant-baseline="central" font-size="17" font-weight="500" fill="#1D1D1F">Regression</text></g><g class="node"><rect x="955.0" y="417.0" width="161.3" height="48.0" rx="10" fill="#FFFFFF" stroke="#E5E5EA" stroke-width="1.5"><title>Linear &amp; ridge</title></rect><rect class="fam-rule fam-sup" x="955.0" y="417.0" width="5.0" height="48.0" rx="2.5" fill="#007AFF"/><text x="971.0" y="441.0" dominant-baseline="central" font-size="17" font-weight="500" fill="#1D1D1F">Linear &amp; ridge</text></g><g class="node"><rect x="955.0" y="491.0" width="199.4" height="48.0" rx="10" fill="#FFFFFF" stroke="#E5E5EA" stroke-width="1.5"><title>Gaussian processes</title></rect><rect class="fam-rule fam-sup" x="955.0" y="491.0" width="5.0" height="48.0" rx="2.5" fill="#007AFF"/><text x="971.0" y="515.0" dominant-baseline="central" font-size="17" font-weight="500" fill="#1D1D1F">Gaussian processes</text></g><g class="node"><rect class="card pill-uns" x="345.0" y="602.0" width="167.7" height="48.0" rx="24.0" fill="#B35900"><title>Unsupervised</title></rect><text x="428.8" y="626.0" text-anchor="middle" dominant-baseline="central" font-size="19" font-weight="700" fill="#FFFFFF">Unsupervised</text></g><g class="node"><rect x="650.0" y="565.0" width="123.2" height="48.0" rx="10" fill="#FFFFFF" stroke="#E5E5EA" stroke-width="1.5"><title>Clustering</title></rect><rect class="fam-rule fam-uns" x="650.0" y="565.0" width="5.0" height="48.0" rx="2.5" fill="#FF9500"/><text x="666.0" y="589.0" dominant-baseline="central" font-size="17" font-weight="500" fill="#1D1D1F">Clustering</text></g><g class="node"><rect x="650.0" y="639.0" width="256.5" height="48.0" rx="10" fill="#FFFFFF" stroke="#E5E5EA" stroke-width="1.5"><title>Dimensionality reduction</title></rect><rect class="fam-rule fam-uns" x="650.0" y="639.0" width="5.0" height="48.0" rx="2.5" fill="#FF9500"/><text x="666.0" y="663.0" dominant-baseline="central" font-size="17" font-weight="500" fill="#1D1D1F">Dimensionality reduction</text></g><g class="node"><rect class="card pill-deep" x="345.0" y="750.0" width="178.3" height="48.0" rx="24.0" fill="#9A3FCB"><title>Deep learning</title></rect><text x="434.2" y="774.0" text-anchor="middle" dominant-baseline="central" font-size="19" font-weight="700" fill="#FFFFFF">Deep learning</text></g><g class="node"><rect x="650.0" y="713.0" width="199.4" height="48.0" rx="10" fill="#FFFFFF" stroke="#E5E5EA" stroke-width="1.5"><title>Convolutional nets</title></rect><rect class="fam-rule fam-deep" x="650.0" y="713.0" width="5.0" height="48.0" rx="2.5" fill="#AF52DE"/><text x="666.0" y="737.0" dominant-baseline="central" font-size="17" font-weight="500" fill="#1D1D1F">Convolutional nets</text></g><g class="node"><rect x="650.0" y="787.0" width="142.2" height="48.0" rx="10" fill="#FFFFFF" stroke="#E5E5EA" stroke-width="1.5"><title>Transformers</title></rect><rect class="fam-rule fam-deep" x="650.0" y="787.0" width="5.0" height="48.0" rx="2.5" fill="#AF52DE"/><text x="666.0" y="811.0" dominant-baseline="central" font-size="17" font-weight="500" fill="#1D1D1F">Transformers</text></g><g class="node"><rect class="card pill-rl" x="345.0" y="861.0" width="178.3" height="48.0" rx="24.0" fill="#22883A"><title>Reinforcement</title></rect><text x="434.2" y="885.0" text-anchor="middle" dominant-baseline="central" font-size="19" font-weight="700" fill="#FFFFFF">Reinforcement</text></g><g class="node"><rect x="650.0" y="861.0" width="180.3" height="48.0" rx="10" fill="#FFFFFF" stroke="#E5E5EA" stroke-width="1.5"><title>Policy gradients</title></rect><rect class="fam-rule fam-rl" x="650.0" y="861.0" width="5.0" height="48.0" rx="2.5" fill="#28CD41"/><text x="666.0" y="885.0" dominant-baseline="central" font-size="17" font-weight="500" fill="#1D1D1F">Policy gradients</text></g></g><g id="lineages"><g class="lin" tabindex="0" role="img" aria-label="Machine learning › Supervised › Classification › Logistic regression"><title>Machine learning › Supervised › Classification › Logistic regression</title><path class="link fam-sup" d="M250.2,635.2 C297.6,635.2 297.6,385.5 345.0,385.5" fill="none" stroke="#007AFF" stroke-width="3" stroke-opacity="0.9" stroke-linecap="round"/><path class="link fam-sup" d="M491.4,385.5 C570.7,385.5 570.7,293.0 650.0,293.0" fill="none" stroke="#007AFF" stroke-width="3" stroke-opacity="0.9" stroke-linecap="round"/><path class="link fam-sup" d="M811.3,293.0 C883.1,293.0 883.1,219.0 955.0,219.0" fill="none" stroke="#007AFF" stroke-width="3" stroke-opacity="0.9" stroke-linecap="round"/><g class="node"><rect class="card" tabindex="0" x="40.0" y="611.2" width="210.2" height="48.0" rx="24.0" fill="#1D1D1F"><title>Machine learning</title></rect><text x="145.1" y="635.2" text-anchor="middle" dominant-baseline="central" font-size="19" font-weight="700" fill="#FFFFFF">Machine learning</text></g><g class="node"><rect class="card pill-sup" tabindex="0" x="345.0" y="361.5" width="146.4" height="48.0" rx="24.0" fill="#0064D2"><title>Supervised</title></rect><text x="418.2" y="385.5" text-anchor="middle" dominant-baseline="central" font-size="19" font-weight="700" fill="#FFFFFF">Supervised</text></g><g class="node"><rect x="650.0" y="269.0" width="161.3" height="48.0" rx="10" fill="#FFFFFF" stroke="#E5E5EA" stroke-width="1.5"><title>Classification</title></rect><rect class="fam-rule fam-sup" x="650.0" y="269.0" width="5.0" height="48.0" rx="2.5" fill="#007AFF"/><text x="666.0" y="293.0" dominant-baseline="central" font-size="17" font-weight="500" fill="#1D1D1F">Classification</text></g><g class="node"><rect x="955.0" y="195.0" width="208.9" height="48.0" rx="10" fill="#FFFFFF" stroke="#E5E5EA" stroke-width="1.5"><title>Logistic regression</title></rect><rect class="fam-rule fam-sup" x="955.0" y="195.0" width="5.0" height="48.0" rx="2.5" fill="#007AFF"/><text x="971.0" y="219.0" dominant-baseline="central" font-size="17" font-weight="500" fill="#1D1D1F">Logistic regression</text></g></g><g class="lin" tabindex="0" role="img" aria-label="Machine learning › Supervised › Classification › Support-vector machines"><title>Machine learning › Supervised › Classification › Support-vector machines</title><path class="link fam-sup" d="M250.2,635.2 C297.6,635.2 297.6,385.5 345.0,385.5" fill="none" stroke="#007AFF" stroke-width="3" stroke-opacity="0.9" stroke-linecap="round"/><path class="link fam-sup" d="M491.4,385.5 C570.7,385.5 570.7,293.0 650.0,293.0" fill="none" stroke="#007AFF" stroke-width="3" stroke-opacity="0.9" stroke-linecap="round"/><path class="link fam-sup" d="M811.3,293.0 C883.1,293.0 883.1,293.0 955.0,293.0" fill="none" stroke="#007AFF" stroke-width="3" stroke-opacity="0.9" stroke-linecap="round"/><g class="node"><rect class="card" tabindex="0" x="40.0" y="611.2" width="210.2" height="48.0" rx="24.0" fill="#1D1D1F"><title>Machine learning</title></rect><text x="145.1" y="635.2" text-anchor="middle" dominant-baseline="central" font-size="19" font-weight="700" fill="#FFFFFF">Machine learning</text></g><g class="node"><rect class="card pill-sup" tabindex="0" x="345.0" y="361.5" width="146.4" height="48.0" rx="24.0" fill="#0064D2"><title>Supervised</title></rect><text x="418.2" y="385.5" text-anchor="middle" dominant-baseline="central" font-size="19" font-weight="700" fill="#FFFFFF">Supervised</text></g><g class="node"><rect x="650.0" y="269.0" width="161.3" height="48.0" rx="10" fill="#FFFFFF" stroke="#E5E5EA" stroke-width="1.5"><title>Classification</title></rect><rect class="fam-rule fam-sup" x="650.0" y="269.0" width="5.0" height="48.0" rx="2.5" fill="#007AFF"/><text x="666.0" y="293.0" dominant-baseline="central" font-size="17" font-weight="500" fill="#1D1D1F">Classification</text></g><g class="node"><rect x="955.0" y="269.0" width="247.0" height="48.0" rx="10" fill="#FFFFFF" stroke="#E5E5EA" stroke-width="1.5"><title>Support-vector machines</title></rect><rect class="fam-rule fam-sup" x="955.0" y="269.0" width="5.0" height="48.0" rx="2.5" fill="#007AFF"/><text x="971.0" y="293.0" dominant-baseline="central" font-size="17" font-weight="500" fill="#1D1D1F">Support-vector machines</text></g></g><g class="lin" tabindex="0" role="img" aria-label="Machine learning › Supervised › Classification › Gradient-boosted trees"><title>Machine learning › Supervised › Classification › Gradient-boosted trees</title><path class="link fam-sup" d="M250.2,635.2 C297.6,635.2 297.6,385.5 345.0,385.5" fill="none" stroke="#007AFF" stroke-width="3" stroke-opacity="0.9" stroke-linecap="round"/><path class="link fam-sup" d="M491.4,385.5 C570.7,385.5 570.7,293.0 650.0,293.0" fill="none" stroke="#007AFF" stroke-width="3" stroke-opacity="0.9" stroke-linecap="round"/><path class="link fam-sup" d="M811.3,293.0 C883.1,293.0 883.1,367.0 955.0,367.0" fill="none" stroke="#007AFF" stroke-width="3" stroke-opacity="0.9" stroke-linecap="round"/><g class="node"><rect class="card" tabindex="0" x="40.0" y="611.2" width="210.2" height="48.0" rx="24.0" fill="#1D1D1F"><title>Machine learning</title></rect><text x="145.1" y="635.2" text-anchor="middle" dominant-baseline="central" font-size="19" font-weight="700" fill="#FFFFFF">Machine learning</text></g><g class="node"><rect class="card pill-sup" tabindex="0" x="345.0" y="361.5" width="146.4" height="48.0" rx="24.0" fill="#0064D2"><title>Supervised</title></rect><text x="418.2" y="385.5" text-anchor="middle" dominant-baseline="central" font-size="19" font-weight="700" fill="#FFFFFF">Supervised</text></g><g class="node"><rect x="650.0" y="269.0" width="161.3" height="48.0" rx="10" fill="#FFFFFF" stroke="#E5E5EA" stroke-width="1.5"><title>Classification</title></rect><rect class="fam-rule fam-sup" x="650.0" y="269.0" width="5.0" height="48.0" rx="2.5" fill="#007AFF"/><text x="666.0" y="293.0" dominant-baseline="central" font-size="17" font-weight="500" fill="#1D1D1F">Classification</text></g><g class="node"><rect x="955.0" y="343.0" width="237.4" height="48.0" rx="10" fill="#FFFFFF" stroke="#E5E5EA" stroke-width="1.5"><title>Gradient-boosted trees</title></rect><rect class="fam-rule fam-sup" x="955.0" y="343.0" width="5.0" height="48.0" rx="2.5" fill="#007AFF"/><text x="971.0" y="367.0" dominant-baseline="central" font-size="17" font-weight="500" fill="#1D1D1F">Gradient-boosted trees</text></g></g><g class="lin" tabindex="0" role="img" aria-label="Machine learning › Supervised › Regression › Linear &amp; ridge"><title>Machine learning › Supervised › Regression › Linear &amp; ridge</title><path class="link fam-sup" d="M250.2,635.2 C297.6,635.2 297.6,385.5 345.0,385.5" fill="none" stroke="#007AFF" stroke-width="3" stroke-opacity="0.9" stroke-linecap="round"/><path class="link fam-sup" d="M491.4,385.5 C570.7,385.5 570.7,478.0 650.0,478.0" fill="none" stroke="#007AFF" stroke-width="3" stroke-opacity="0.9" stroke-linecap="round"/><path class="link fam-sup" d="M773.2,478.0 C864.1,478.0 864.1,441.0 955.0,441.0" fill="none" stroke="#007AFF" stroke-width="3" stroke-opacity="0.9" stroke-linecap="round"/><g class="node"><rect class="card" tabindex="0" x="40.0" y="611.2" width="210.2" height="48.0" rx="24.0" fill="#1D1D1F"><title>Machine learning</title></rect><text x="145.1" y="635.2" text-anchor="middle" dominant-baseline="central" font-size="19" font-weight="700" fill="#FFFFFF">Machine learning</text></g><g class="node"><rect class="card pill-sup" tabindex="0" x="345.0" y="361.5" width="146.4" height="48.0" rx="24.0" fill="#0064D2"><title>Supervised</title></rect><text x="418.2" y="385.5" text-anchor="middle" dominant-baseline="central" font-size="19" font-weight="700" fill="#FFFFFF">Supervised</text></g><g class="node"><rect x="650.0" y="454.0" width="123.2" height="48.0" rx="10" fill="#FFFFFF" stroke="#E5E5EA" stroke-width="1.5"><title>Regression</title></rect><rect class="fam-rule fam-sup" x="650.0" y="454.0" width="5.0" height="48.0" rx="2.5" fill="#007AFF"/><text x="666.0" y="478.0" dominant-baseline="central" font-size="17" font-weight="500" fill="#1D1D1F">Regression</text></g><g class="node"><rect x="955.0" y="417.0" width="161.3" height="48.0" rx="10" fill="#FFFFFF" stroke="#E5E5EA" stroke-width="1.5"><title>Linear &amp; ridge</title></rect><rect class="fam-rule fam-sup" x="955.0" y="417.0" width="5.0" height="48.0" rx="2.5" fill="#007AFF"/><text x="971.0" y="441.0" dominant-baseline="central" font-size="17" font-weight="500" fill="#1D1D1F">Linear &amp; ridge</text></g></g><g class="lin" tabindex="0" role="img" aria-label="Machine learning › Supervised › Regression › Gaussian processes"><title>Machine learning › Supervised › Regression › Gaussian processes</title><path class="link fam-sup" d="M250.2,635.2 C297.6,635.2 297.6,385.5 345.0,385.5" fill="none" stroke="#007AFF" stroke-width="3" stroke-opacity="0.9" stroke-linecap="round"/><path class="link fam-sup" d="M491.4,385.5 C570.7,385.5 570.7,478.0 650.0,478.0" fill="none" stroke="#007AFF" stroke-width="3" stroke-opacity="0.9" stroke-linecap="round"/><path class="link fam-sup" d="M773.2,478.0 C864.1,478.0 864.1,515.0 955.0,515.0" fill="none" stroke="#007AFF" stroke-width="3" stroke-opacity="0.9" stroke-linecap="round"/><g class="node"><rect class="card" tabindex="0" x="40.0" y="611.2" width="210.2" height="48.0" rx="24.0" fill="#1D1D1F"><title>Machine learning</title></rect><text x="145.1" y="635.2" text-anchor="middle" dominant-baseline="central" font-size="19" font-weight="700" fill="#FFFFFF">Machine learning</text></g><g class="node"><rect class="card pill-sup" tabindex="0" x="345.0" y="361.5" width="146.4" height="48.0" rx="24.0" fill="#0064D2"><title>Supervised</title></rect><text x="418.2" y="385.5" text-anchor="middle" dominant-baseline="central" font-size="19" font-weight="700" fill="#FFFFFF">Supervised</text></g><g class="node"><rect x="650.0" y="454.0" width="123.2" height="48.0" rx="10" fill="#FFFFFF" stroke="#E5E5EA" stroke-width="1.5"><title>Regression</title></rect><rect class="fam-rule fam-sup" x="650.0" y="454.0" width="5.0" height="48.0" rx="2.5" fill="#007AFF"/><text x="666.0" y="478.0" dominant-baseline="central" font-size="17" font-weight="500" fill="#1D1D1F">Regression</text></g><g class="node"><rect x="955.0" y="491.0" width="199.4" height="48.0" rx="10" fill="#FFFFFF" stroke="#E5E5EA" stroke-width="1.5"><title>Gaussian processes</title></rect><rect class="fam-rule fam-sup" x="955.0" y="491.0" width="5.0" height="48.0" rx="2.5" fill="#007AFF"/><text x="971.0" y="515.0" dominant-baseline="central" font-size="17" font-weight="500" fill="#1D1D1F">Gaussian processes</text></g></g><g class="lin" tabindex="0" role="img" aria-label="Machine learning › Unsupervised › Clustering"><title>Machine learning › Unsupervised › Clustering</title><path class="link fam-uns" d="M250.2,635.2 C297.6,635.2 297.6,626.0 345.0,626.0" fill="none" stroke="#FF9500" stroke-width="3" stroke-opacity="0.9" stroke-linecap="round"/><path class="link fam-uns" d="M512.7,626.0 C581.3,626.0 581.3,589.0 650.0,589.0" fill="none" stroke="#FF9500" stroke-width="3" stroke-opacity="0.9" stroke-linecap="round"/><g class="node"><rect class="card" tabindex="0" x="40.0" y="611.2" width="210.2" height="48.0" rx="24.0" fill="#1D1D1F"><title>Machine learning</title></rect><text x="145.1" y="635.2" text-anchor="middle" dominant-baseline="central" font-size="19" font-weight="700" fill="#FFFFFF">Machine learning</text></g><g class="node"><rect class="card pill-uns" tabindex="0" x="345.0" y="602.0" width="167.7" height="48.0" rx="24.0" fill="#B35900"><title>Unsupervised</title></rect><text x="428.8" y="626.0" text-anchor="middle" dominant-baseline="central" font-size="19" font-weight="700" fill="#FFFFFF">Unsupervised</text></g><g class="node"><rect x="650.0" y="565.0" width="123.2" height="48.0" rx="10" fill="#FFFFFF" stroke="#E5E5EA" stroke-width="1.5"><title>Clustering</title></rect><rect class="fam-rule fam-uns" x="650.0" y="565.0" width="5.0" height="48.0" rx="2.5" fill="#FF9500"/><text x="666.0" y="589.0" dominant-baseline="central" font-size="17" font-weight="500" fill="#1D1D1F">Clustering</text></g></g><g class="lin" tabindex="0" role="img" aria-label="Machine learning › Unsupervised › Dimensionality reduction"><title>Machine learning › Unsupervised › Dimensionality reduction</title><path class="link fam-uns" d="M250.2,635.2 C297.6,635.2 297.6,626.0 345.0,626.0" fill="none" stroke="#FF9500" stroke-width="3" stroke-opacity="0.9" stroke-linecap="round"/><path class="link fam-uns" d="M512.7,626.0 C581.3,626.0 581.3,663.0 650.0,663.0" fill="none" stroke="#FF9500" stroke-width="3" stroke-opacity="0.9" stroke-linecap="round"/><g class="node"><rect class="card" tabindex="0" x="40.0" y="611.2" width="210.2" height="48.0" rx="24.0" fill="#1D1D1F"><title>Machine learning</title></rect><text x="145.1" y="635.2" text-anchor="middle" dominant-baseline="central" font-size="19" font-weight="700" fill="#FFFFFF">Machine learning</text></g><g class="node"><rect class="card pill-uns" tabindex="0" x="345.0" y="602.0" width="167.7" height="48.0" rx="24.0" fill="#B35900"><title>Unsupervised</title></rect><text x="428.8" y="626.0" text-anchor="middle" dominant-baseline="central" font-size="19" font-weight="700" fill="#FFFFFF">Unsupervised</text></g><g class="node"><rect x="650.0" y="639.0" width="256.5" height="48.0" rx="10" fill="#FFFFFF" stroke="#E5E5EA" stroke-width="1.5"><title>Dimensionality reduction</title></rect><rect class="fam-rule fam-uns" x="650.0" y="639.0" width="5.0" height="48.0" rx="2.5" fill="#FF9500"/><text x="666.0" y="663.0" dominant-baseline="central" font-size="17" font-weight="500" fill="#1D1D1F">Dimensionality reduction</text></g></g><g class="lin" tabindex="0" role="img" aria-label="Machine learning › Deep learning › Convolutional nets"><title>Machine learning › Deep learning › Convolutional nets</title><path class="link fam-deep" d="M250.2,635.2 C297.6,635.2 297.6,774.0 345.0,774.0" fill="none" stroke="#AF52DE" stroke-width="3" stroke-opacity="0.9" stroke-linecap="round"/><path class="link fam-deep" d="M523.3,774.0 C586.7,774.0 586.7,737.0 650.0,737.0" fill="none" stroke="#AF52DE" stroke-width="3" stroke-opacity="0.9" stroke-linecap="round"/><g class="node"><rect class="card" tabindex="0" x="40.0" y="611.2" width="210.2" height="48.0" rx="24.0" fill="#1D1D1F"><title>Machine learning</title></rect><text x="145.1" y="635.2" text-anchor="middle" dominant-baseline="central" font-size="19" font-weight="700" fill="#FFFFFF">Machine learning</text></g><g class="node"><rect class="card pill-deep" tabindex="0" x="345.0" y="750.0" width="178.3" height="48.0" rx="24.0" fill="#9A3FCB"><title>Deep learning</title></rect><text x="434.2" y="774.0" text-anchor="middle" dominant-baseline="central" font-size="19" font-weight="700" fill="#FFFFFF">Deep learning</text></g><g class="node"><rect x="650.0" y="713.0" width="199.4" height="48.0" rx="10" fill="#FFFFFF" stroke="#E5E5EA" stroke-width="1.5"><title>Convolutional nets</title></rect><rect class="fam-rule fam-deep" x="650.0" y="713.0" width="5.0" height="48.0" rx="2.5" fill="#AF52DE"/><text x="666.0" y="737.0" dominant-baseline="central" font-size="17" font-weight="500" fill="#1D1D1F">Convolutional nets</text></g></g><g class="lin" tabindex="0" role="img" aria-label="Machine learning › Deep learning › Transformers"><title>Machine learning › Deep learning › Transformers</title><path class="link fam-deep" d="M250.2,635.2 C297.6,635.2 297.6,774.0 345.0,774.0" fill="none" stroke="#AF52DE" stroke-width="3" stroke-opacity="0.9" stroke-linecap="round"/><path class="link fam-deep" d="M523.3,774.0 C586.7,774.0 586.7,811.0 650.0,811.0" fill="none" stroke="#AF52DE" stroke-width="3" stroke-opacity="0.9" stroke-linecap="round"/><g class="node"><rect class="card" tabindex="0" x="40.0" y="611.2" width="210.2" height="48.0" rx="24.0" fill="#1D1D1F"><title>Machine learning</title></rect><text x="145.1" y="635.2" text-anchor="middle" dominant-baseline="central" font-size="19" font-weight="700" fill="#FFFFFF">Machine learning</text></g><g class="node"><rect class="card pill-deep" tabindex="0" x="345.0" y="750.0" width="178.3" height="48.0" rx="24.0" fill="#9A3FCB"><title>Deep learning</title></rect><text x="434.2" y="774.0" text-anchor="middle" dominant-baseline="central" font-size="19" font-weight="700" fill="#FFFFFF">Deep learning</text></g><g class="node"><rect x="650.0" y="787.0" width="142.2" height="48.0" rx="10" fill="#FFFFFF" stroke="#E5E5EA" stroke-width="1.5"><title>Transformers</title></rect><rect class="fam-rule fam-deep" x="650.0" y="787.0" width="5.0" height="48.0" rx="2.5" fill="#AF52DE"/><text x="666.0" y="811.0" dominant-baseline="central" font-size="17" font-weight="500" fill="#1D1D1F">Transformers</text></g></g><g class="lin" tabindex="0" role="img" aria-label="Machine learning › Reinforcement › Policy gradients"><title>Machine learning › Reinforcement › Policy gradients</title><path class="link fam-rl" d="M250.2,635.2 C297.6,635.2 297.6,885.0 345.0,885.0" fill="none" stroke="#28CD41" stroke-width="3" stroke-opacity="0.9" stroke-linecap="round"/><path class="link fam-rl" d="M523.3,885.0 C586.7,885.0 586.7,885.0 650.0,885.0" fill="none" stroke="#28CD41" stroke-width="3" stroke-opacity="0.9" stroke-linecap="round"/><g class="node"><rect class="card" tabindex="0" x="40.0" y="611.2" width="210.2" height="48.0" rx="24.0" fill="#1D1D1F"><title>Machine learning</title></rect><text x="145.1" y="635.2" text-anchor="middle" dominant-baseline="central" font-size="19" font-weight="700" fill="#FFFFFF">Machine learning</text></g><g class="node"><rect class="card pill-rl" tabindex="0" x="345.0" y="861.0" width="178.3" height="48.0" rx="24.0" fill="#22883A"><title>Reinforcement</title></rect><text x="434.2" y="885.0" text-anchor="middle" dominant-baseline="central" font-size="19" font-weight="700" fill="#FFFFFF">Reinforcement</text></g><g class="node"><rect x="650.0" y="861.0" width="180.3" height="48.0" rx="10" fill="#FFFFFF" stroke="#E5E5EA" stroke-width="1.5"><title>Policy gradients</title></rect><rect class="fam-rule fam-rl" x="650.0" y="861.0" width="5.0" height="48.0" rx="2.5" fill="#28CD41"/><text x="666.0" y="885.0" dominant-baseline="central" font-size="17" font-weight="500" fill="#1D1D1F">Policy gradients</text></g></g></g></g><text x="40" y="980" font-size="15" fill="#6E6E73">Hover or focus any topic to trace its path back to the root</text><g data-fs-internal="" role="button" tabindex="0" aria-label="Toggle fullscreen" transform="translate(1252,14)" style="display:none;cursor:pointer"><rect x="0" y="0" width="34" height="34" rx="8" fill="#F2F3F5"/><path d="M6 13 V6 h7 M28 13 V6 h-7 M6 21 v7 h7 M28 21 v7 h-7" fill="none" stroke="#1D1D1F" stroke-width="2" stroke-linecap="round"/></g><script><![CDATA[(function(){var me=document.currentScript,svg=me.ownerSVGElement||me.parentNode;if(svg.closest&&svg.closest('[data-fs-target]'))return;var btn=svg.querySelector('[data-fs-internal]');var req=svg.requestFullscreen||svg.webkitRequestFullscreen;if(!btn||!req)return;btn.style.display='';function t(){var f=document.fullscreenElement||document.webkitFullscreenElement;if(f===svg)(document.exitFullscreen||document.webkitExitFullscreen).call(document);else req.call(svg);}btn.addEventListener('click',t);btn.addEventListener('keydown',function(e){if(e.key==='Enter'||e.key===' '){e.preventDefault();t();}});})();]]></script></svg>